<?xml version="1.0" encoding="utf-8"?>
<!-- Generator: Adobe Illustrator 17.0.0, SVG Export Plug-In . SVG Version: 6.00 Build 0)  -->
<!DOCTYPE svg PUBLIC "-//W3C//DTD SVG 1.1//EN" "http://www.w3.org/Graphics/SVG/1.1/DTD/svg11.dtd">
<svg version="1.1" id="Layer_1" xmlns="http://www.w3.org/2000/svg" xmlns:xlink="http://www.w3.org/1999/xlink" x="0px" y="0px"
	 width="130px" height="75px" viewBox="0 0 130 75" enable-background="new 0 0 130 75" xml:space="preserve">
<g>
	<path id="path5888_2_" fill="#0052A4" d="M46.636,21.371l13.869,6.001c0,0,1.896-0.837,3.742-1.628c0,0,0.349-0.186,0.349-0.558
		c0,0,0-0.419-0.449-0.605c0,0-6.236-2.698-12.472-5.35l11.175-4.792l0.948-0.186l0.898,0.186l16.762,7.211
		c0,0,1.696,0.744,1.696,1.721c0,0,0,0.977-1.696,1.675l-13.12,5.629l13.12,5.629c0,0,1.696,0.698,1.696,1.768
		c0,0,0,0.93-1.696,1.721L64.696,46.91c0,0-0.349,0.279-0.898,0.279L62.85,46.91l-11.175-4.745l12.472-5.303l0.449-0.605
		c0,0,0-0.279-0.349-0.605l-3.742-1.582l-13.869,6.001V33.28l6.036-2.605l-6.036-2.512V21.371"/>
	<g id="svg_1_2_">
		<path id="path5874_2_" fill="#0052A4" d="M69.735,52.834v5.916c0,0,0,2.414-2.35,2.437h-3.824c0,0-0.518-0.024-0.737-0.497
			l-0.677-1.278h4.322c0,0,0.956-0.024,0.956-0.899v-5.679H69.735"/>
		<path id="path5876_2_" fill="#0052A4" d="M57.944,52.834l4.342,8.353h-2.709l-0.737-1.514h-3.983l0.637-1.278
			c0,0,0.239-0.497,0.737-0.497h1.753l-1.533-3.076l-3.087,6.365h-2.708l4.342-8.353H57.944"/>
		<path id="path5878_2_" fill="#0052A4" d="M76.805,52.834l4.302,8.353h-2.669l-0.757-1.514h-4.003l0.657-1.278
			c0,0,0.259-0.497,0.757-0.497h1.753l-1.534-3.076l-3.127,6.365h-2.709l4.342-8.353H76.805"/>
		<path id="path5880_2_" fill="#0052A4" d="M88.555,52.834v5.916c0,0-0.02,2.414-2.31,2.437h-3.864c0,0-0.538-0.024-0.757-0.497
			l-0.657-1.278h4.342c0,0,0.976-0.024,0.976-0.899v-5.679H88.555"/>
		<path id="path5884_2_" fill="#0052A4" d="M41.235,52.833v8.353h2.31v-3.549v-3.1h3.983c0.817,0,0.817,0.71,0.817,0.71
			c0,0.663-0.817,0.663-0.817,0.663h-2.569c-0.478,0-0.737,0.45-0.737,0.45l-0.677,1.278h3.944c0.856,0,0.856,0.875,0.856,0.875
			c0,0.876-0.856,0.9-0.856,0.9h-2.529c-0.478-0.024-0.737,0.473-0.737,0.473l-0.677,1.301h3.983
			c3.386-0.024,3.386-2.271,3.386-2.271c0-1.467-1.593-1.988-1.593-1.988c1.593-0.473,1.593-1.94,1.593-1.94
			c0-2.177-3.386-2.154-3.386-2.154H41.235L41.235,52.833z"/>
	</g>
</g>
</svg>
