<?xml version="1.0" encoding="utf-8"?>
<!-- Generator: Adobe Illustrator 17.0.0, SVG Export Plug-In . SVG Version: 6.00 Build 0)  -->
<!DOCTYPE svg PUBLIC "-//W3C//DTD SVG 1.1//EN" "http://www.w3.org/Graphics/SVG/1.1/DTD/svg11.dtd">
<svg version="1.1" id="Layer_1" xmlns="http://www.w3.org/2000/svg" xmlns:xlink="http://www.w3.org/1999/xlink" x="0px" y="0px"
	 width="130px" height="75px" viewBox="0 0 130 75" enable-background="new 0 0 130 75" xml:space="preserve">
<g>
	<g>
		<path id="path5888_9_" fill="#39435b" d="M45.81,20.529l13.869,6.001c0,0,1.896-0.837,3.742-1.628c0,0,0.349-0.186,0.349-0.558
			c0,0,0-0.419-0.449-0.605c0,0-6.236-2.698-12.472-5.35l11.175-4.792l0.948-0.186l0.898,0.186l16.762,7.211
			c0,0,1.696,0.744,1.696,1.721c0,0,0,0.977-1.696,1.675l-13.12,5.629l13.12,5.629c0,0,1.696,0.698,1.696,1.768
			c0,0,0,0.93-1.696,1.721L63.87,46.068c0,0-0.349,0.279-0.898,0.279l-0.948-0.279l-11.175-4.745l12.472-5.303l0.449-0.605
			c0,0,0-0.279-0.349-0.605l-3.742-1.582L45.81,39.23v-6.792l6.036-2.605l-6.036-2.512V20.529"/>
		<g id="svg_1_9_">
			<path id="path5874_9_" fill="#39435b" d="M68.909,51.992v5.916c0,0,0,2.414-2.35,2.437h-3.824c0,0-0.518-0.024-0.737-0.497
				l-0.677-1.278h4.322c0,0,0.956-0.024,0.956-0.899v-5.679H68.909"/>
			<path id="path5876_9_" fill="#39435b" d="M57.119,51.992l4.342,8.353h-2.709l-0.737-1.514h-3.983l0.637-1.278
				c0,0,0.239-0.497,0.737-0.497h1.753l-1.534-3.076l-3.087,6.365H49.83l4.342-8.353H57.119"/>
			<path id="path5878_9_" fill="#39435b" d="M75.979,51.992l4.302,8.353h-2.669l-0.757-1.514h-4.003l0.657-1.278
				c0,0,0.259-0.497,0.757-0.497h1.753l-1.534-3.076l-3.127,6.365H68.65l4.342-8.353H75.979"/>
			<path id="path5880_9_" fill="#39435b" d="M87.729,51.992v5.916c0,0-0.02,2.414-2.31,2.437h-3.864c0,0-0.538-0.024-0.757-0.497
				l-0.657-1.278h4.342c0,0,0.976-0.024,0.976-0.899v-5.679H87.729"/>
			<path id="path5884_9_" fill="#39435b" d="M40.409,51.992v8.353h2.31v-3.549v-3.1h3.983c0.817,0,0.817,0.71,0.817,0.71
				c0,0.663-0.817,0.663-0.817,0.663h-2.569c-0.478,0-0.737,0.45-0.737,0.45l-0.677,1.278h3.944c0.856,0,0.856,0.875,0.856,0.875
				c0,0.876-0.856,0.899-0.856,0.899h-2.529c-0.478-0.024-0.737,0.473-0.737,0.473l-0.677,1.302h3.983
				c3.386-0.024,3.386-2.271,3.386-2.271c0-1.467-1.593-1.988-1.593-1.988c1.593-0.473,1.593-1.94,1.593-1.94
				c0-2.177-3.386-2.154-3.386-2.154h-6.294V51.992z"/>
		</g>
	</g>
</g>
</svg>
