<?xml version="1.0" encoding="utf-8"?>
<!-- Generator: Adobe Illustrator 17.0.0, SVG Export Plug-In . SVG Version: 6.00 Build 0)  -->
<!DOCTYPE svg PUBLIC "-//W3C//DTD SVG 1.1//EN" "http://www.w3.org/Graphics/SVG/1.1/DTD/svg11.dtd">
<svg version="1.1" id="Layer_1" xmlns="http://www.w3.org/2000/svg" xmlns:xlink="http://www.w3.org/1999/xlink" x="0px" y="0px"
	 width="130px" height="75px" viewBox="0 0 130 75" enable-background="new 0 0 130 75" xml:space="preserve">
<g id="Layer_1_3_">
	<g>
		<path fill="#fafbfb" d="M85.07,19.686h-4.905v0.054c0.162,0.269,0.269,0.647,0.269,0.997c0,0.593-0.377,1.644-0.485,2.102
			l-3.126,8.975c-0.431,1.159-0.485,1.482-1.213,2.587v0.054h4.07v-0.054c-0.216-0.377-0.323-0.674-0.323-1.051
			c0-0.593,0.27-1.375,0.431-1.806l0.216-0.647h4.42c0,0,0.269,0.782,0.485,1.267c0.162,0.431,0.216,0.836,0.216,1.105
			c0,0.324-0.054,0.593-0.216,1.105v0.054h5.929v-0.054c-0.647-0.782-0.943-1.698-1.482-3.18L85.07,19.686z M80.784,28.527
			l1.375-4.124l0,0l1.428,4.124H80.784z M73.076,31.222c0,1.321,0.108,2.534,0.539,3.234v0.054h-5.822v-0.054
			c0.593-0.997,0.485-2.021,0.485-3.18V28.85v-0.593l-0.782-1.536l-2.803-5.229c-0.377-0.728-0.674-1.213-1.267-1.752v-0.054h5.067
			v0.054l3.019,6.118c0,0,0.674-1.375,0.836-1.698c0.323-0.647,0.674-1.375,0.835-1.698c0.27-0.485,0.539-1.159,0.539-1.698
			c0-0.539-0.162-0.782-0.323-0.997V19.66h4.016v0.054l-4.07,8.032l-0.323,0.593L73.076,31.222L73.076,31.222z M102.292,34.483
			H91.889v-0.054c0.431-0.943,0.485-1.752,0.485-3.18v-8.355c0-1.752-0.162-2.426-0.485-3.126v-0.054h5.66v0.054
			c-0.377,0.997-0.431,1.59-0.431,3.18v8.517c0.647,0.108,1.375,0.216,2.156,0.216c1.698,0,2.587-0.162,3.234-0.431h0.162
			L102.292,34.483z M56.528,19.336c-4.609,0-7.762,2.857-7.762,6.873c0,5.876,6.226,6.711,8.409,4.798l-0.377-0.728
			c-1.914,0.377-3.585-1.051-3.585-4.285c0-2.587,1.375-4.232,3.288-4.232c2.21,0,3.585,2.21,3.585,5.444
			c0,3.639-2.102,6.388-6.037,6.388c-4.501,0-7.87-3.531-9.999-7.088c2.318-0.889,3.692-2.641,3.692-5.013
			c0-3.073-2.318-5.229-6.495-5.229h-7.924v0.054c0.323,0.674,0.485,1.967,0.485,3.692v11.266c0,1.428-0.054,2.21-0.485,3.18v0.054
			h5.875v-0.054c-0.377-0.889-0.485-2.102-0.485-3.18c0-1.752,0-3.126,0-3.126c0.054,0,0.647,0,0.728,0
			c4.07,5.983,8.732,8.463,13.692,8.463c7.196,0,11.428-4.555,11.428-9.568C64.559,22.759,61.325,19.336,56.528,19.336z
			 M38.766,25.778v-6.711h1.644c1.914,0,2.695,1.105,2.695,2.911c0,2.156-1.267,3.854-3.342,3.854
			C39.44,25.778,38.874,25.778,38.766,25.778z M51.229,40.84c-0.323,0.674-0.485,1.429-0.485,3.126v9.191
			c0.054,0.943,0.108,1.59,0.485,2.318v0.054h-0.485H49.8h-2.021c-0.728-0.323-1.536-1.213-2.587-2.318
			c-0.835-0.889-4.797-5.498-4.797-5.498H40.34c0,0,0,4.339,0,4.393c-1.159,0.108-2.534,0.431-3.585,0.674v-0.943v-7.924
			c0-1.752-0.162-2.426-0.485-3.126v-0.054h2.965h1.213l6.711,8.139l0,0v-4.851c0-1.752-0.162-2.426-0.485-3.126V40.84H49.8H51.229
			L51.229,40.84z M44.302,55.583c-5.875,0.054-7.25,3.234-14.689,3.234c-3.585,0-6.765-0.943-6.765-0.943V57.82
			c0.431-0.943,0.485-1.698,0.485-3.126V41.11c0-1.752-0.162-3.019-0.485-3.692v-0.054h11.994l0.377,3.342l0,0
			c-0.889-0.377-2.021-0.485-3.585-0.485h-3.18v5.768h1.536c2.372,0,3.746-0.162,4.124-0.27h0.108v3.477h-0.054
			c-0.485-0.162-2.102-0.323-4.07-0.323h-1.59v5.768c0,0,1.86,0.431,3.531,0.431c4.447,0,6.334-1.59,10.727-1.59
			c0.162,0,0.27,0,0.377,0c0.835,0.997,1.59,1.806,1.914,2.102C44.733,55.583,44.733,55.583,44.302,55.583z M69.825,44.021v8.409
			c0,1.429,0.054,2.21,0.485,3.18v0.054h-5.714V55.61c0.431-0.943,0.485-1.752,0.485-3.18v-8.409c0-1.752-0.162-2.426-0.485-3.126
			V40.84h5.714v0.054C69.987,41.595,69.825,42.269,69.825,44.021z M58.371,47.255L58.371,47.255h0.431
			c2.102,0,2.803-0.162,3.126-0.216h0.108v3.072h-0.108c-0.431-0.162-1.321-0.323-3.073-0.323h-0.485v1.806v0.728
			c0,1.482,0.054,2.48,0.539,3.234v0.054h-5.768v-0.054c0.431-0.943,0.485-1.752,0.485-3.18v-8.355c0-1.752-0.162-2.426-0.485-3.126
			V40.84h9.837l0.377,3.019h-0.081c-0.674-0.323-1.59-0.485-3.019-0.485h-1.914v2.426v1.455H58.371z M82.762,52.537l-0.377,3.073
			h-6.819l0,0h-3.342v-0.054c0.431-0.943,0.485-1.752,0.485-3.18v-8.355c0-1.752-0.162-2.426-0.485-3.126V40.84h9.838l0.377,3.019
			h-0.027c-0.674-0.323-1.59-0.485-3.019-0.485H77.48v3.369l0,0l0,0h0.377c2.102,0,2.803-0.162,3.126-0.216h0.108V49.6h-0.108
			c-0.431-0.162-1.321-0.323-3.072-0.323h-0.485v3.477c0.674,0.108,1.159,0.162,1.967,0.162c1.806,0,2.426-0.108,3.18-0.431h0.189
			V52.537z M108.933,48.683c0,5.067-3.692,9.029-9.945,9.029c-4.797,0-6.334-2.102-12.317-2.102l0,0h-2.48v-0.054
			c0.431-0.943,0.485-1.752,0.485-3.18v-8.409c0-1.752-0.162-2.426-0.485-3.126v-0.054h5.714v0.054
			c-0.323,0.674-0.485,1.806-0.485,3.18v8.975c3.531,0,5.121,1.051,8.247,1.051c4.339,0,6.441-2.372,6.441-5.768
			c0-2.911-1.482-5.067-4.07-5.067c-0.485,0-1.159,0-1.698,0v9.137c-1.59,0.054-3.423-0.162-4.744-0.647V43.94
			c0-1.752-0.162-2.426-0.485-3.126v-0.054h6.711C105.402,40.786,108.933,44.236,108.933,48.683z"/>
	</g>
</g>
</svg>
