<?xml version="1.0" encoding="utf-8"?>
<!-- Generator: Adobe Illustrator 17.0.0, SVG Export Plug-In . SVG Version: 6.00 Build 0)  -->
<!DOCTYPE svg PUBLIC "-//W3C//DTD SVG 1.1//EN" "http://www.w3.org/Graphics/SVG/1.1/DTD/svg11.dtd">
<svg version="1.1" id="Layer_1" xmlns="http://www.w3.org/2000/svg" xmlns:xlink="http://www.w3.org/1999/xlink" x="0px" y="0px"
	 width="130px" height="75px" viewBox="0 0 130 75" enable-background="new 0 0 130 75" xml:space="preserve">
<g>
	<g>
		<g>
			<polygon fill="#ED1C24" points="50.323,55.736 45.337,55.736 45.337,51.479 42.176,51.479 42.176,63.036 45.337,63.036 
				45.337,58.406 50.323,58.406 50.323,63.036 53.477,63.036 53.477,51.479 50.323,51.479 			"/>
			<g>
				<path fill="#ED1C24" d="M58.025,55.902c0.266-1.56,1.128-2.376,2.525-2.376c1.414,0,2.377,0.961,2.422,2.376H58.025z
					 M60.568,51.174c-3.478,0-5.81,2.4-5.81,6.001c0,3.746,2.306,6.125,5.91,6.125c2.878,0,4.854-1.32,5.594-3.82h-3.411
					c-0.308,0.913-1.03,1.372-2.115,1.372c-1.63,0-2.609-0.967-2.691-2.646h8.218c0-0.405,0.023-0.549,0.023-0.741
					C66.286,53.574,64.079,51.174,60.568,51.174"/>
				<path fill="#ED1C24" d="M71.659,51.38c-1.118,0.221-3.986,1.084-3.986,5.46v6.197h3.194v-5.119c0-1.894,0.263-2.783,1.055-3.357
					c0.482-0.387,1.182-0.601,1.994-0.601c0.336,0,0.481,0.025,0.866,0.095v-2.623C74.782,51.431,73.506,51.018,71.659,51.38"/>
				<path fill="#ED1C24" d="M81.102,60.896c-1.684,0-2.665-1.368-2.665-3.649c0-2.305,0.963-3.651,2.665-3.651
					c1.68,0,2.644,1.323,2.644,3.628C83.746,59.555,82.782,60.896,81.102,60.896 M81.102,51.173
					c-3.582,0.001-5.888,2.376-5.888,6.074c0,3.673,2.306,6.053,5.888,6.053c3.551,0,5.86-2.381,5.86-6.053
					C86.963,53.549,84.653,51.173,81.102,51.173"/>
			</g>
		</g>
		<g>
			<polygon fill="#1F1916" points="67.52,11.932 67.52,27.311 74.829,22.246 74.829,17.331 			"/>
			<polygon fill="#1F1916" points="74.829,39.323 74.829,28.757 67.52,34.012 			"/>
			<polygon fill="#ED1C24" points="54.758,38.708 62.069,44.021 62.069,22.027 54.758,16.629 			"/>
		</g>
	</g>
</g>
</svg>
