<?xml version="1.0" encoding="utf-8"?>
<!-- Generator: Adobe Illustrator 17.0.0, SVG Export Plug-In . SVG Version: 6.00 Build 0)  -->
<!DOCTYPE svg PUBLIC "-//W3C//DTD SVG 1.1//EN" "http://www.w3.org/Graphics/SVG/1.1/DTD/svg11.dtd">
<svg version="1.1" id="Layer_1" xmlns="http://www.w3.org/2000/svg" xmlns:xlink="http://www.w3.org/1999/xlink" x="0px" y="0px"
	 width="130px" height="75px" viewBox="0 0 130 75" enable-background="new 0 0 130 75" xml:space="preserve">
<g>
	<g>
		<g>
			<polygon fill="#ccebf5" points="53.497,55.444 48.511,55.444 48.511,51.188 45.351,51.188 45.351,62.745 48.511,62.745 
				48.511,58.115 53.497,58.115 53.497,62.745 56.651,62.745 56.651,51.188 53.497,51.188 			"/>
			<g>
				<path fill="#ccebf5" d="M61.199,55.611c0.266-1.56,1.128-2.376,2.525-2.376c1.414,0,2.377,0.961,2.422,2.376H61.199z
					 M63.742,50.883c-3.478,0-5.81,2.4-5.81,6.001c0,3.746,2.306,6.125,5.91,6.125c2.878,0,4.854-1.32,5.594-3.82h-3.411
					c-0.308,0.913-1.03,1.372-2.115,1.372c-1.63,0-2.609-0.967-2.691-2.646h8.218c0-0.405,0.023-0.549,0.023-0.741
					C69.46,53.282,67.253,50.883,63.742,50.883"/>
				<path fill="#ccebf5" d="M74.833,51.088c-1.118,0.221-3.986,1.084-3.986,5.46v6.197h3.194v-5.119
					c0-1.894,0.263-2.783,1.055-3.357c0.482-0.387,1.182-0.601,1.994-0.601c0.336,0,0.481,0.025,0.866,0.095V51.14
					C77.956,51.139,76.68,50.726,74.833,51.088"/>
				<path fill="#ccebf5" d="M84.277,60.604c-1.684,0-2.665-1.368-2.665-3.649c0-2.305,0.963-3.651,2.665-3.651
					c1.68,0,2.644,1.323,2.644,3.628C86.92,59.264,85.956,60.604,84.277,60.604 M84.277,50.881
					c-3.582,0.001-5.888,2.376-5.888,6.074c0,3.673,2.306,6.053,5.888,6.053c3.551,0,5.86-2.381,5.86-6.053
					C90.137,53.258,87.827,50.881,84.277,50.881"/>
			</g>
		</g>
		<g>
			<polygon fill="#ccebf5" points="70.694,11.64 70.694,27.019 78.003,21.954 78.003,17.039 			"/>
			<polygon fill="#ccebf5" points="78.003,39.031 78.003,28.465 70.694,33.721 			"/>
			<polygon fill="#ccebf5" points="57.932,38.416 65.243,43.729 65.243,21.735 57.932,16.337 			"/>
		</g>
	</g>
</g>
</svg>
