<?xml version="1.0" encoding="utf-8"?>
<!-- Generator: Adobe Illustrator 17.0.0, SVG Export Plug-In . SVG Version: 6.00 Build 0)  -->
<!DOCTYPE svg PUBLIC "-//W3C//DTD SVG 1.1//EN" "http://www.w3.org/Graphics/SVG/1.1/DTD/svg11.dtd">
<svg version="1.1" id="Layer_1" xmlns="http://www.w3.org/2000/svg" xmlns:xlink="http://www.w3.org/1999/xlink" x="0px" y="0px"
	 width="130px" height="75px" viewBox="0 0 130 75" enable-background="new 0 0 130 75" xml:space="preserve">
<g>
	<g>
		<path fill="#39435b" d="M31.496,40.477c0.228-1.085,0.69-2.038,1.532-2.789c0.843-0.753,1.825-1.257,2.862-1.679
			c14.357-5.837,28.737-11.615,43.055-17.547c5.473-2.267,10.799-4.888,16.191-7.35c0.081-0.037,0.15-0.101,0.225-0.153
			c0.062,0,0.124,0,0.186,0c-0.004,0.148,0.034,0.312-0.019,0.44c-0.734,1.799-1.403,3.631-2.245,5.379
			c-0.863,1.793-2.323,3.046-4.199,3.73c-5.569,2.03-11.142,4.05-16.729,6.03C60.612,30.7,48.859,34.832,37.114,38.987
			c-0.519,0.184-1.038,0.417-1.494,0.722c-1.132,0.758-1.379,1.965-0.642,3.107c0.273,0.422,0.634,0.799,1.003,1.146
			c3.69,3.458,7.39,6.905,11.089,10.354c0.099,0.093,0.216,0.167,0.422,0.325c-0.214,0.027-0.282,0.044-0.35,0.044
			c-1.577,0.002-3.155-0.005-4.732,0.007c-0.273,0.002-0.411-0.078-0.502-0.343c-0.282-0.819-0.782-1.498-1.393-2.107
			c-2.038-2.03-4.045-4.092-6.106-6.098c-1.334-1.299-2.573-2.63-2.913-4.552C31.496,41.22,31.496,40.849,31.496,40.477z"/>
		<path fill="#39435b" d="M51.453,63.777c-0.884-0.126-1.778-0.203-2.647-0.395c-0.531-0.117-1.061-0.35-1.528-0.634
			c-2.242-1.364-2.225-4.562,0.01-5.935c0.847-0.521,1.786-0.768,2.76-0.864c1.716-0.169,3.428-0.172,5.083,0.416
			c2.068,0.734,3.063,2.582,2.429,4.537c-0.469,1.448-1.616,2.147-2.996,2.48c-0.864,0.208-1.763,0.269-2.647,0.396
			C51.763,63.777,51.608,63.777,51.453,63.777z M51.692,57.222c-0.235,0.016-0.514,0.021-0.789,0.057
			c-0.994,0.132-1.625,0.651-1.786,1.604c-0.189,1.111-0.278,2.239,0.776,3.043c0.178,0.136,0.409,0.25,0.627,0.276
			c0.578,0.067,1.166,0.143,1.742,0.101c1.266-0.091,1.908-0.721,2.047-1.97c0.047-0.424,0.029-0.868-0.041-1.289
			c-0.182-1.103-0.82-1.668-1.933-1.777C52.136,57.249,51.935,57.239,51.692,57.222z"/>
		<path fill="#39435b" d="M97.309,63.498c-2.116,0-4.233,0-6.39,0c0-0.34,0-0.639,0-0.979c0.227-0.029,0.468-0.056,0.707-0.092
			c0.262-0.039,0.633-0.088,0.551-0.408c-0.076-0.297-0.372-0.753-0.589-0.764c-1.404-0.069-2.815-0.07-4.219,0
			c-0.22,0.011-0.514,0.467-0.599,0.766c-0.094,0.332,0.274,0.377,0.535,0.415c0.211,0.031,0.424,0.051,0.658,0.078
			c0,0.321,0,0.622,0,0.945c-1.565,0-3.102,0-4.662,0c0-0.327,0-0.628,0-0.903c0.04-0.035,0.052-0.054,0.062-0.053
			c0.975,0.071,1.488-0.484,1.92-1.283c0.58-1.072,1.265-2.088,1.901-3.13c0.373-0.612,0.244-0.848-0.484-0.911
			c-0.306-0.026-0.61-0.069-0.937-0.106c0-0.327,0-0.628,0-0.981c0.424,0,0.821,0,1.219,0c1.361,0,2.723,0.02,4.083-0.01
			c0.527-0.011,0.866,0.174,1.146,0.612c1.018,1.587,2.11,3.13,3.074,4.748c0.495,0.831,1.138,1.103,2.024,1.034
			C97.309,62.817,97.309,63.158,97.309,63.498z M88.005,59.888c1.001,0,1.913,0,2.896,0c-0.511-0.781-0.98-1.498-1.493-2.282
			C88.922,58.396,88.482,59.113,88.005,59.888z"/>
		<path fill="#39435b" d="M49.413,40.619c-2.184,0.572-4.334,1.136-6.483,1.698c-1.733,0.453-3.467,0.898-5.198,1.36
			c-0.284,0.076-0.498,0.058-0.706-0.167c-0.241-0.261-0.527-0.48-0.77-0.739c-0.711-0.759-0.579-1.756,0.319-2.268
			c0.359-0.205,0.756-0.352,1.15-0.482C53.24,34.917,68.76,29.826,84.271,24.708c2.08-0.686,4.119-1.498,6.178-2.251
			c0.149-0.055,0.301-0.104,0.468-0.161c0.026,0.109,0.057,0.161,0.043,0.192c-0.843,1.951-1.855,3.808-3.182,5.473
			c-0.973,1.222-2.252,1.999-3.763,2.404c-8.499,2.281-16.997,4.568-25.495,6.852c-2.907,0.781-5.816,1.558-8.723,2.34
			C49.172,39.725,49.057,40.011,49.413,40.619z"/>
		<path fill="#39435b" d="M85.63,32.303c-0.059,0.12-0.103,0.25-0.178,0.358c-0.923,1.314-1.813,2.653-2.787,3.929
			c-1.02,1.337-2.48,1.905-4.099,2.214c-7.585,1.444-15.164,2.92-22.744,4.386c-0.061,0.012-0.119,0.032-0.18,0.045
			c-0.625,0.14-0.737,0.453-0.311,1.04c-0.786,0.155-1.545,0.308-2.305,0.453c-3.883,0.741-7.767,1.477-11.649,2.226
			c-0.361,0.07-0.625,0.027-0.906-0.249c-0.77-0.757-1.578-1.476-2.446-2.279c15.892-4.094,31.705-8.169,47.519-12.243
			C85.572,32.224,85.601,32.263,85.63,32.303z"/>
		<path fill="#39435b" d="M62.12,48.508c-1.322,0.168-2.636,0.334-3.95,0.501c-3.081,0.39-6.163,0.78-9.245,1.171
			c-1.272,0.161-2.544,0.329-3.818,0.478c-0.15,0.017-0.356-0.021-0.462-0.116c-1-0.901-1.983-1.819-2.97-2.734
			c-0.03-0.027-0.04-0.076-0.077-0.147c12.673-2.377,25.324-4.749,38.09-7.143c-0.124,0.209-0.169,0.321-0.245,0.406
			c-0.991,1.104-1.951,2.239-2.991,3.296c-1.215,1.235-2.79,1.691-4.469,1.92c-3.108,0.424-6.209,0.896-9.311,1.356
			C61.941,47.603,61.837,47.803,62.12,48.508z"/>
		<path fill="#39435b" d="M72.163,54.686c-0.281,0-0.435,0-0.589,0c-7.327,0-14.654-0.002-21.982,0.007
			c-0.348,0-0.606-0.09-0.861-0.333c-1.016-0.969-2.052-1.916-3.161-2.945c0.654-0.083,1.21-0.158,1.767-0.223
			c3.313-0.385,6.628-0.765,9.941-1.15c1.979-0.23,3.957-0.47,5.936-0.692c0.185-0.021,0.414,0,0.566,0.093
			c2.722,1.677,5.436,3.367,8.151,5.056C71.981,54.527,72.021,54.569,72.163,54.686z"/>
		<path fill="#39435b" d="M31.871,57.073c0-0.34,0-0.629,0-0.949c1.947,0,3.872,0,5.834,0c0,0.31,0,0.609,0,0.946
			c-0.278,0.036-0.549,0.083-0.822,0.105c-0.389,0.032-0.598,0.235-0.611,0.619c-0.013,0.399-0.003,0.798-0.003,1.228
			c1.542,0,3.046,0,4.599,0c0-0.429,0.015-0.843-0.005-1.255c-0.018-0.358-0.226-0.557-0.592-0.59
			c-0.276-0.025-0.551-0.065-0.852-0.102c0-0.317,0-0.619,0-0.952c1.947,0,3.887,0,5.855,0c0,0.315,0,0.616,0,0.948
			c-0.269,0.035-0.526,0.084-0.785,0.098c-0.453,0.024-0.674,0.241-0.672,0.702c0.006,1.284,0.004,2.568,0.001,3.851
			c-0.001,0.435,0.204,0.654,0.641,0.681c0.261,0.016,0.521,0.066,0.812,0.105c0,0.304,0,0.606,0,0.943c-1.937,0-3.876,0-5.848,0
			c0-0.298,0-0.598,0-0.943c0.276-0.037,0.561-0.086,0.849-0.11c0.397-0.033,0.583-0.259,0.596-0.634
			c0.014-0.385,0.003-0.772,0.003-1.201c-1.524,0-3.029,0-4.57,0c0,0.461-0.041,0.939,0.022,1.402
			c0.022,0.16,0.284,0.345,0.474,0.41c0.271,0.093,0.576,0.086,0.905,0.127c0,0.307,0,0.608,0,0.946c-1.93,0-3.866,0-5.826,0
			c0-0.316,0-0.616,0-0.939c0.297-0.04,0.569-0.088,0.843-0.11c0.37-0.029,0.588-0.225,0.592-0.584
			c0.014-1.345,0.014-2.69,0.003-4.035c-0.003-0.383-0.236-0.581-0.623-0.607C32.43,57.156,32.171,57.111,31.871,57.073z"/>
		<path fill="#39435b" d="M62.762,62.51c0,0.33,0,0.631,0,0.954c-1.555,0-3.082,0-4.649,0c0-0.31,0-0.621,0-0.955
			c0.298-0.038,0.587-0.081,0.877-0.112c0.369-0.04,0.56-0.243,0.561-0.61c0.003-1.33,0.003-2.661,0-3.991
			c-0.001-0.396-0.22-0.585-0.603-0.62c-0.276-0.025-0.55-0.067-0.849-0.104c0-0.321,0-0.622,0-0.979c0.206,0,0.386,0,0.567,0
			c1.454,0,2.909,0.01,4.363-0.006c0.444-0.005,0.754,0.148,1.021,0.506c1.128,1.512,2.275,3.01,3.416,4.513
			c0.092,0.121,0.187,0.239,0.344,0.437c0.026-0.196,0.052-0.303,0.052-0.41c0.003-1.006,0.005-2.011,0.001-3.017
			c-0.003-0.757-0.109-0.869-0.862-0.958c-0.184-0.022-0.366-0.056-0.585-0.09c0-0.302,0-0.603,0-0.94c1.538,0,3.074,0,4.646,0
			c0,0.305,0,0.605,0,0.942c-0.247,0.034-0.489,0.073-0.731,0.099c-0.585,0.063-0.72,0.193-0.723,0.793
			c-0.008,1.64-0.004,3.28-0.004,4.919c0,0.183,0,0.365,0,0.59c-1.311,0-2.574,0.023-3.834-0.022
			c-0.221-0.008-0.48-0.265-0.639-0.471c-1.127-1.455-2.232-2.927-3.344-4.393c-0.12-0.158-0.241-0.315-0.427-0.558
			c-0.026,0.203-0.052,0.309-0.052,0.416c-0.003,0.975-0.002,1.949-0.002,2.924c0.001,0.88,0.054,0.942,0.902,1.064
			C62.376,62.455,62.544,62.479,62.762,62.51z"/>
		<path fill="#39435b" d="M71.611,63.46c0-0.331,0-0.621,0-0.946c0.281-0.039,0.551-0.094,0.824-0.11
			c0.418-0.025,0.632-0.249,0.635-0.646c0.011-1.329,0.009-2.658,0.001-3.987c-0.002-0.358-0.187-0.572-0.566-0.601
			c-0.259-0.019-0.516-0.064-0.792-0.099c0-0.327,0-0.627,0-0.954c0.16-0.009,0.295-0.024,0.43-0.024
			c2.302-0.001,4.606-0.042,6.907,0.02c0.865,0.023,1.759,0.182,2.577,0.461c1.442,0.491,2.198,1.693,2.201,3.208
			c0.003,1.518-0.748,2.703-2.188,3.22c-0.729,0.262-1.527,0.44-2.298,0.457c-2.502,0.058-5.006,0.024-7.51,0.024
			C71.774,63.485,71.715,63.472,71.611,63.46z M75.977,62.034c1.062,0,2.065,0.037,3.064-0.013c0.693-0.035,1.179-0.481,1.263-1.157
			c0.088-0.71,0.076-1.445-0.001-2.157c-0.062-0.575-0.459-1.041-1.046-1.101c-1.082-0.111-2.175-0.115-3.281-0.165
			C75.977,59.049,75.977,60.542,75.977,62.034z"/>
	</g>
</g>
</svg>
