<?xml version="1.0" encoding="utf-8"?>
<!-- Generator: Adobe Illustrator 19.2.1, SVG Export Plug-In . SVG Version: 6.00 Build 0)  -->
<svg version="1.1" id="Layer_1" xmlns="http://www.w3.org/2000/svg" xmlns:xlink="http://www.w3.org/1999/xlink" x="0px" y="0px"
	 viewBox="0 0 115 85" style="enable-background:new 0 0 115 85;" xml:space="preserve">
<style type="text/css">
	.st0{display:none;fill:#0F0F0F;}
	.st1{fill:#39445B;}
</style>
<path class="st0" d="M3.7,67.5c-1.7,0-3.3-0.3-4.7-0.9C-2.5,66-3.7,65.1-4.8,64c-1.1-1.1-2-2.4-2.6-3.8c-0.6-1.5-1-3-1-4.7
	s0.3-3.2,1-4.7c0.6-1.5,1.5-2.7,2.6-3.8s2.4-1.9,3.8-2.6c1.5-0.6,3-1,4.7-1s3.2,0.3,4.7,1c1.5,0.6,2.8,1.5,3.9,2.6
	c1.1,1.1,2,2.4,2.6,3.8c0.6,1.5,1,3,1,4.7s-0.3,3.2-1,4.7c-0.6,1.5-1.5,2.7-2.6,3.8s-2.4,1.9-3.9,2.6C6.9,67.2,5.3,67.5,3.7,67.5z
	 M3.7,49.2c-0.9,0-1.7,0.2-2.4,0.5s-1.4,0.8-1.9,1.4c-0.5,0.6-0.9,1.2-1.2,2c-0.3,0.8-0.5,1.5-0.5,2.4c0,0.8,0.2,1.6,0.5,2.4
	c0.3,0.8,0.7,1.4,1.2,2s1.2,1,1.9,1.4c0.7,0.3,1.5,0.5,2.4,0.5s1.7-0.2,2.4-0.5s1.4-0.8,1.9-1.4c0.5-0.6,0.9-1.2,1.2-2
	s0.5-1.6,0.5-2.4c0-0.8-0.2-1.6-0.5-2.4c-0.3-0.8-0.7-1.4-1.2-2s-1.2-1-1.9-1.4C5.3,49.4,4.5,49.2,3.7,49.2z"/>
<g>
	<path class="st1" d="M102.4,80H58.2c-0.3,0-0.5-0.1-0.7-0.3c-0.2-0.2-0.3-0.5-0.3-0.7V52.6c0-0.6,0.5-1,1-1s1,0.5,1,1v25.4h42.2
		V33.6L80.3,13.9L59.2,33.6v8.6c0,0.6-0.5,1-1,1s-1-0.5-1-1v-9.1c0-0.3,0.1-0.6,0.3-0.8l22.1-20.6c0.4-0.4,1-0.4,1.4,0l22.1,20.6
		c0.2,0.2,0.3,0.5,0.3,0.8V79c0,0.3-0.1,0.5-0.3,0.7C102.9,79.9,102.7,80,102.4,80 M58.2,48.4c-0.6,0-1-0.5-1-1c0-0.6,0.5-1,1-1
		s1,0.5,1,1C59.2,48,58.7,48.4,58.2,48.4"/>
	<path class="st1" d="M109.1,40.4c-0.3,0-0.5-0.1-0.7-0.3L80.3,13.9L57.4,35.3c-0.2,0.2-0.4,0.3-0.7,0.3c-0.3,0-0.6-0.1-0.8-0.3
		c-0.2-0.2-0.3-0.5-0.3-0.7c0-0.3,0.1-0.5,0.3-0.7l23.6-22c0.4-0.4,1-0.4,1.4,0L108,37v-2.7L80.3,8.4L52.5,34.3v1.8c0,0.6-0.5,1-1,1
		c-0.6,0-1-0.5-1-1v-2.3c0-0.3,0.1-0.6,0.3-0.8L79.6,6.2c0.4-0.4,1-0.4,1.4,0l28.8,26.9c0.2,0.2,0.3,0.5,0.3,0.8v5.5
		c0,0.4-0.2,0.8-0.6,1C109.4,40.4,109.2,40.4,109.1,40.4"/>
	<path class="st1" d="M100.5,26.9L100.5,26.9c-0.3,0-0.5-0.1-0.7-0.3L94.9,22c-0.2-0.2-0.3-0.5-0.3-0.8v-3.8c0-0.3,0.1-0.5,0.3-0.7
		c0.2-0.2,0.5-0.3,0.7-0.3h4.9c0.3,0,0.5,0.1,0.7,0.3c0.2,0.2,0.3,0.5,0.3,0.7v8.4c0,0.4-0.2,0.8-0.6,1
		C100.8,26.9,100.7,26.9,100.5,26.9 M96.6,20.8l2.9,2.7v-5h-2.9V20.8z"/>
	<path class="st1" d="M13.5,73.2v4.7h43.7V65.5c0-0.6,0.5-1,1-1s1,0.5,1,1V79c0,0.3-0.1,0.5-0.3,0.7c-0.2,0.2-0.5,0.3-0.7,0.3H12.4
		c-0.3,0-0.5-0.1-0.7-0.3c-0.2-0.2-0.3-0.5-0.3-0.7v-6.1v-5.7V54.9c0-0.3,0.1-0.5,0.3-0.7c0.2-0.2,0.5-0.3,0.7-0.3h45.7
		c0.3,0,0.5,0.1,0.7,0.3c0.2,0.2,0.3,0.5,0.3,0.7v0.3c0,0.6-0.5,1-1,1c-0.3,0-0.5-0.1-0.7-0.3h-44v10.9V73.2z M58.2,61.3
		c-0.6,0-1-0.5-1-1c0-0.6,0.5-1,1-1s1,0.5,1,1C59.2,60.9,58.7,61.3,58.2,61.3"/>
	<path class="st1" d="M58.1,55.9H7.3c-0.4,0-0.7-0.2-0.9-0.5c-0.2-0.3-0.2-0.7,0.1-1.1l5.1-7.6c0.2-0.3,0.5-0.5,0.9-0.5h45.7
		c0.3,0,0.5,0.1,0.7,0.3c0.2,0.2,0.3,0.5,0.3,0.7v7.6c0,0.3-0.1,0.5-0.3,0.7C58.7,55.8,58.4,55.9,58.1,55.9 M9.2,53.8h47.9v-5.6H13
		L9.2,53.8z"/>
	<path class="st1" d="M58.2,48.2H22.4c-0.4,0-0.7-0.2-0.9-0.5c-0.2-0.3-0.2-0.7-0.1-1l2.7-5.6c0.2-0.4,0.5-0.6,0.9-0.6h33.1
		c0.3,0,0.5,0.1,0.7,0.3c0.2,0.2,0.3,0.5,0.3,0.7v5.6c0,0.3-0.1,0.5-0.3,0.7C58.7,48.1,58.4,48.2,58.2,48.2 M24,46.2h33.1v-3.5H25.7
		L24,46.2z"/>
	<path class="st1" d="M28.9,80h-8.8c-0.3,0-0.5-0.1-0.7-0.3c-0.2-0.2-0.3-0.5-0.3-0.7V61.7c0-0.3,0.1-0.5,0.3-0.7
		c0.2-0.2,0.5-0.3,0.7-0.3h8.8c0.3,0,0.5,0.1,0.7,0.3c0.2,0.2,0.3,0.5,0.3,0.7V79c0,0.3-0.1,0.5-0.3,0.7C29.5,79.9,29.2,80,28.9,80
		 M21.1,77.9h6.7V62.8h-6.7V77.9z"/>
	<path class="st1" d="M52.7,73.4H34.6c-0.3,0-0.5-0.1-0.7-0.3c-0.2-0.2-0.3-0.5-0.3-0.7V61.7c0-0.3,0.1-0.5,0.3-0.7
		c0.2-0.2,0.5-0.3,0.7-0.3h18.1c0.3,0,0.5,0.1,0.7,0.3c0.2,0.2,0.3,0.5,0.3,0.7v10.6c0,0.3-0.1,0.5-0.3,0.7
		C53.2,73.3,53,73.4,52.7,73.4 M35.6,71.3h16v-8.5h-16V71.3z"/>
	<path class="st1" d="M52.7,66.5H37.1c-0.6,0-1-0.5-1-1c0-0.6,0.5-1,1-1h15.5c0.6,0,1,0.5,1,1C53.7,66,53.2,66.5,52.7,66.5"/>
	<path class="st1" d="M52.7,69.6H37.1c-0.6,0-1-0.5-1-1c0-0.6,0.5-1,1-1h15.5c0.6,0,1,0.5,1,1C53.7,69.1,53.2,69.6,52.7,69.6"/>
	<path class="st1" d="M75.6,62.4h-9.3c-0.3,0-0.5-0.1-0.7-0.3c-0.2-0.2-0.3-0.5-0.3-0.7v-9.3c0-0.3,0.1-0.5,0.3-0.7
		c0.2-0.2,0.5-0.3,0.7-0.3h9.3c0.3,0,0.5,0.1,0.7,0.3c0.2,0.2,0.3,0.5,0.3,0.7v9.3c0,0.3-0.1,0.5-0.3,0.7
		C76.2,62.3,75.9,62.4,75.6,62.4 M67.4,60.3h7.2v-7.2h-7.2V60.3z"/>
	<path class="st1" d="M84.9,62.4h-9.3c-0.3,0-0.5-0.1-0.7-0.3c-0.2-0.2-0.3-0.5-0.3-0.7v-9.3c0-0.3,0.1-0.5,0.3-0.7
		c0.2-0.2,0.5-0.3,0.7-0.3h9.3c0.3,0,0.5,0.1,0.7,0.3c0.2,0.2,0.3,0.5,0.3,0.7v9.3c0,0.3-0.1,0.5-0.3,0.7
		C85.5,62.3,85.2,62.4,84.9,62.4 M76.7,60.3h7.2v-7.2h-7.2V60.3z"/>
	<path class="st1" d="M94.2,62.4h-9.3c-0.3,0-0.5-0.1-0.7-0.3c-0.2-0.2-0.3-0.5-0.3-0.7v-9.3c0-0.3,0.1-0.5,0.3-0.7
		c0.2-0.2,0.5-0.3,0.7-0.3h9.3c0.3,0,0.5,0.1,0.7,0.3c0.2,0.2,0.3,0.5,0.3,0.7v9.3c0,0.3-0.1,0.5-0.3,0.7
		C94.8,62.3,94.5,62.4,94.2,62.4 M86,60.3h7.2v-7.2H86V60.3z"/>
	<path class="st1" d="M75.6,71.7h-9.3c-0.3,0-0.5-0.1-0.7-0.3c-0.2-0.2-0.3-0.5-0.3-0.7v-9.3c0-0.3,0.1-0.5,0.3-0.7
		c0.2-0.2,0.5-0.3,0.7-0.3h9.3c0.3,0,0.5,0.1,0.7,0.3c0.2,0.2,0.3,0.5,0.3,0.7v9.3c0,0.3-0.1,0.5-0.3,0.7
		C76.2,71.6,75.9,71.7,75.6,71.7 M67.4,69.6h7.2v-7.2h-7.2V69.6z"/>
	<path class="st1" d="M84.9,71.7h-9.3c-0.3,0-0.5-0.1-0.7-0.3c-0.2-0.2-0.3-0.5-0.3-0.7v-9.3c0-0.3,0.1-0.5,0.3-0.7
		c0.2-0.2,0.5-0.3,0.7-0.3h9.3c0.3,0,0.5,0.1,0.7,0.3c0.2,0.2,0.3,0.5,0.3,0.7v9.3c0,0.3-0.1,0.5-0.3,0.7
		C85.5,71.6,85.2,71.7,84.9,71.7 M76.7,69.6h7.2v-7.2h-7.2V69.6z"/>
	<path class="st1" d="M94.2,71.7h-9.3c-0.3,0-0.5-0.1-0.7-0.3c-0.2-0.2-0.3-0.5-0.3-0.7v-9.3c0-0.3,0.1-0.5,0.3-0.7
		c0.2-0.2,0.5-0.3,0.7-0.3h9.3c0.3,0,0.5,0.1,0.7,0.3c0.2,0.2,0.3,0.5,0.3,0.7v9.3c0,0.3-0.1,0.5-0.3,0.7
		C94.8,71.6,94.5,71.7,94.2,71.7 M86,69.6h7.2v-7.2H86V69.6z"/>
	<path class="st1" d="M113.3,80H1.7c-0.6,0-1-0.5-1-1c0-0.6,0.5-1,1-1h111.6c0.6,0,1,0.5,1,1C114.4,79.5,113.9,80,113.3,80"/>
	<path class="st1" d="M98.9,83.7H48.7c-0.6,0-1-0.5-1-1c0-0.6,0.5-1,1-1h50.2c0.6,0,1,0.5,1,1C99.9,83.2,99.5,83.7,98.9,83.7"/>
	<path class="st1" d="M27.2,83.6H3.4c-0.6,0-1-0.5-1-1c0-0.6,0.5-1,1-1h23.8c0.6,0,1,0.5,1,1C28.2,83.1,27.8,83.6,27.2,83.6"/>
	<path class="st1" d="M35.4,30.3L35.4,30.3H23.8c-0.8,0-1.6-0.3-2.2-0.9c-0.6-0.6-0.9-1.4-0.9-2.2c0-1.3,0.9-2.5,2.1-3
		c0.2-1.2,1.1-2.2,2.3-2.5c0.5-1.1,1.6-1.8,2.8-1.8h0c0.3,0,0.5,0,0.8,0.1c0.6-0.6,1.5-0.9,2.4-0.9h0c1.6,0,3,1.1,3.4,2.6
		c0.9,0,1.8,0.4,2.4,1c0.6,0.7,1,1.5,1,2.4c0,0.1,0,0.1,0,0.2c0.4,0.5,0.6,1.2,0.6,1.8c0,0.8-0.3,1.6-0.9,2.2
		C37,30,36.2,30.3,35.4,30.3 M23.8,26.2c-0.6,0-1,0.5-1,1c0,0.6,0.5,1,1,1h11.5c0.6,0,1-0.5,1-1c0-0.3-0.1-0.5-0.3-0.7
		c-0.3-0.2-0.4-0.6-0.3-0.9c0-0.1,0-0.2,0-0.3c0-0.8-0.6-1.4-1.4-1.4c-0.2,0-0.3,0-0.5,0.1c-0.4,0.1-0.8,0.1-1.1-0.2
		c-0.3-0.2-0.4-0.6-0.3-1c0,0,0-0.1,0-0.2c0-0.8-0.6-1.4-1.4-1.4c-0.5,0-0.9,0.2-1.2,0.6c-0.1,0.2-0.4,0.4-0.7,0.5
		c-0.3,0.1-0.6,0-0.8-0.1c-0.1-0.1-0.3-0.1-0.5-0.1h0c-0.5,0-0.9,0.4-1,0.9c-0.1,0.5-0.5,0.9-1,0.9h0c-0.6,0-1,0.5-1,1
		c0,0.1,0,0.1,0,0.2c0,0.3,0,0.6-0.2,0.8C24.4,26.1,24.2,26.2,23.8,26.2L23.8,26.2z"/>
	<path class="st1" d="M80.3,35.3L80.3,35.3c-1.8,0-3.5-0.7-4.8-2c-1.3-1.3-2-3-2-4.8c0-1.8,0.7-3.5,2-4.8c1.3-1.3,3-2,4.8-2h0
		c1.8,0,3.5,0.7,4.8,2c1.3,1.3,2,3,2,4.8c0,1.8-0.7,3.5-2,4.8C83.8,34.6,82.1,35.3,80.3,35.3 M80.3,23.9c-2.6,0-4.7,2.1-4.7,4.7
		c0,2.6,2.1,4.7,4.7,4.7c2.6,0,4.7-2.1,4.7-4.7C85,26,82.9,23.9,80.3,23.9"/>
	<path class="st1" d="M54.2,32.3c-0.1,0-0.3,0-0.4-0.1c-0.4-0.2-0.6-0.5-0.6-1V18.5c0-0.3,0.1-0.5,0.3-0.7c0.2-0.2,0.5-0.3,0.7-0.3
		h13.7c0.4,0,0.8,0.3,1,0.7c0.2,0.4,0.1,0.8-0.3,1.1L54.9,32C54.7,32.2,54.5,32.3,54.2,32.3 M55.3,19.6v9.4l10-9.4H55.3z"/>
	<path class="st1" d="M64.4,15L64.4,15H49.7c-1,0-1.9-0.4-2.6-1.1c-0.7-0.7-1.1-1.6-1.1-2.6c0-0.8,0.3-1.6,0.8-2.2
		c0.5-0.6,1.2-1.1,1.9-1.3C48.8,6.3,50,5,51.5,4.7c0.6-1.4,1.9-2.3,3.4-2.3h0c0.4,0,0.7,0.1,1.1,0.2c0.8-0.8,1.8-1.2,2.9-1.2
		c2,0,3.7,1.4,4.1,3.4c0.1,0,0.1,0,0.2,0c2.3,0,4.1,1.9,4.1,4.1c0,0.1,0,0.2,0,0.3c0.5,0.6,0.7,1.4,0.7,2.2c0,1-0.4,1.9-1.1,2.6
		C66.3,14.6,65.4,15,64.4,15 M49.7,9.7c-0.9,0-1.6,0.7-1.6,1.6c0,0.9,0.7,1.6,1.6,1.6h14.7c0.9,0,1.6-0.7,1.6-1.6
		c0-0.4-0.2-0.9-0.5-1.2c-0.3-0.2-0.4-0.6-0.3-1c0-0.1,0-0.3,0-0.4c0-1.1-0.9-2.1-2.1-2.1h0c-0.3,0-0.5,0.1-0.8,0.2
		c-0.3,0.1-0.8,0.1-1-0.1c-0.3-0.2-0.4-0.6-0.4-1c0-0.1,0-0.2,0-0.3c0-1.1-0.9-2.1-2.1-2.1c-0.7,0-1.4,0.4-1.7,1
		c-0.2,0.3-0.5,0.5-0.9,0.5c-0.2,0-0.4-0.1-0.5-0.2c-0.3-0.2-0.5-0.2-0.8-0.2c-0.8,0-1.5,0.6-1.6,1.4c-0.1,0.5-0.5,0.9-1,0.9h0
		c-0.9,0-1.6,0.7-1.6,1.6c0,0.1,0,0.2,0,0.2c0.1,0.3,0,0.6-0.2,0.8C50.3,9.6,50,9.7,49.7,9.7L49.7,9.7z"/>
</g>
</svg>
