<?xml version="1.0" encoding="utf-8"?>
<!-- Generator: Adobe Illustrator 19.2.1, SVG Export Plug-In . SVG Version: 6.00 Build 0)  -->
<svg version="1.1" id="Layer_1" xmlns="http://www.w3.org/2000/svg" xmlns:xlink="http://www.w3.org/1999/xlink" x="0px" y="0px"
	 viewBox="0 0 80 95" style="enable-background:new 0 0 80 95;" xml:space="preserve">
<style type="text/css">
	.st0{display:none;fill:#0F0F0F;}
	.st1{fill:#39445B;}
</style>
<g>
	<path class="st1" d="M39,79.1c0.2,0.4,0.6,0.6,1,0.6s0.8-0.2,1-0.6l20.4-35.3c4.5-7.7,4.5-17,0-24.7C56.9,11.4,48.9,6.8,40,6.8
		c-8.9,0-16.9,4.6-21.4,12.3c-4.5,7.7-4.5,17,0,24.7L39,79.1z M20.6,20.3c4-7,11.3-11.2,19.4-11.2c8.1,0,15.3,4.2,19.4,11.2
		c4,7,4,15.4,0,22.4L40,76.2L20.6,42.6C16.6,35.6,16.6,27.3,20.6,20.3"/>
	<path class="st1" d="M40,48.3c9.5,0,17.2-7.7,17.2-17.2S49.5,13.9,40,13.9s-17.2,7.7-17.2,17.2S30.5,48.3,40,48.3 M40,16.2
		c8.2,0,14.9,6.7,14.9,14.9S48.2,46,40,46c-8.2,0-14.9-6.7-14.9-14.9S31.8,16.2,40,16.2"/>
	<path class="st1" d="M53.3,67.9c-0.6-0.1-1.2,0.4-1.3,1.1c-0.1,0.6,0.4,1.2,1.1,1.3c14.7,1.4,22.6,4.9,22.6,7.5
		c0,3.1-11.7,7.7-32.9,8.1c-0.9,0-1.9,0-2.7,0c-0.9,0-1.8,0-2.7,0c-21.2-0.4-32.9-5-32.9-8.1c0-2.6,7.9-6.1,22.7-7.5
		c0.6-0.1,1.1-0.6,1.1-1.3c-0.1-0.6-0.6-1.1-1.3-1.1C20.9,68.4,2,70.8,2,77.8c0,6.7,18.3,10.1,35.2,10.5c1,0,1.9,0,2.8,0
		c0.9,0,1.8,0,2.8,0c17-0.3,35.2-3.7,35.2-10.5C78,70.8,59.1,68.4,53.3,67.9"/>
</g>
</svg>
