<?xml version="1.0" encoding="utf-8"?>
<!-- Generator: Adobe Illustrator 17.0.0, SVG Export Plug-In . SVG Version: 6.00 Build 0)  -->
<!DOCTYPE svg PUBLIC "-//W3C//DTD SVG 1.1//EN" "http://www.w3.org/Graphics/SVG/1.1/DTD/svg11.dtd">
<svg version="1.1" id="Layer_1" xmlns="http://www.w3.org/2000/svg" xmlns:xlink="http://www.w3.org/1999/xlink" x="0px" y="0px"
	 width="180px" height="150px" viewBox="0 0 180 150" enable-background="new 0 0 180 150" xml:space="preserve">
<path fill="#3B455B" d="M135.751,98.417c-1.016-6.073-5.733-10.634-11.737-11.35l-0.113-0.013l0.021-0.112
	c2.373-12.698-0.437-26.693-7.333-36.523l-0.082-0.117l0.138-0.044c3.748-1.199,6.266-4.575,6.266-8.401
	c0-0.811-0.524-1.335-1.335-1.335H59.323c-6.696,0-12.143,5.448-12.143,12.143v38.806l-0.028,0.03
	c-1.81,1.96-3.029,4.448-3.435,7.071c0.005,0.211,0.013,0.604,0.261,0.852c0.127,0.128,0.582,0.546,1.078,0.546h1.987l-0.008,0.114
	c-0.208,2.84,0.81,5.693,2.793,7.826c1.978,2.128,4.633,3.3,7.477,3.3c2.872,0,5.536-1.163,7.503-3.275
	c1.964-2.109,2.973-4.971,2.768-7.852l-0.009-0.113h44.46v0.826c0,5.663,4.607,10.27,10.269,10.27c5.663,0,10.27-4.607,10.27-10.27
	V99.97h1.835c0.473,0,0.831-0.178,1.03-0.485C135.757,99.144,135.867,98.752,135.751,98.417z M62.929,105.901
	c-1.461,1.609-3.458,2.495-5.623,2.495c-2.166,0-4.163-0.886-5.623-2.495c-1.467-1.616-2.187-3.795-1.975-5.98l0.009-0.095h15.18
	l0.009,0.096C65.117,102.105,64.397,104.285,62.929,105.901z M114.554,99.921l0.01-0.096h0.242c0.455,0,0.471,0,0.717-0.004
	c0.573-0.01,2.316-0.041,14.123-0.14l0.107-0.001v0.828c0,4.342-3.338,7.743-7.6,7.743c-2.148,0-4.212-0.918-5.661-2.519
	C115.05,104.139,114.344,102.021,114.554,99.921z M49.85,73.666V52.521c0-5.224,4.25-9.473,9.473-9.473h60.656l-0.029,0.13
	c-0.585,2.637-3.053,4.55-5.868,4.55H73.157c-2.521,0-4.65,2.129-4.65,4.649v21.289H49.85z M97.041,78.21v13.037h-6.697V78.21
	H97.041z M90.369,75.19l-0.026-2.457h9.579v2.806h-9.231l0.001-0.35H90.369z M99.711,78.21h0.25c1.451,0,2.632-1.181,2.632-2.632
	v-2.882c0-1.451-1.181-2.632-2.632-2.632H90.2V50.397h18.802v40.706h-9.291V78.21z M87.53,91.103h-8.84l-2.615-13.654
	c-0.558-2.086-2.53-3.641-4.797-3.783l-0.099-0.006V52.377c0-1.073,0.906-1.979,1.979-1.979H87.53V91.103z M121.97,73.55
	l0.012,0.117h-10.166V50.397h1.745l0.032,0.043C118.053,56.485,121.106,64.908,121.97,73.55z M67.214,96.377v0.04l-0.137,0.019
	l0.142,0.425l0.133,0.234l0.071,0.204H46.636l0.05-0.141c1.605-4.524,5.873-7.564,10.62-7.564c4.523,0,8.516,2.694,10.188,6.782
	H67.214z M74.323,97.606l-0.002-0.323L74.323,97.606L74.323,97.606l-0.003-0.323c-1.422,0.01-2.329,0.017-2.892,0.017h-0.947
	l-0.021-0.079c-1.587-6.063-7.056-10.297-13.299-10.297c-2.704,0-5.156,0.721-7.29,2.143l-0.165,0.11V76.481h21.29
	c1.125,0,2.121,0.8,2.269,1.837l2.879,14.678c0.13,0.647,0.655,1.066,1.337,1.066h32.712c0.811,0,1.335-0.524,1.335-1.335v-16.39
	h10.439l0.005,0.101c0.282,7.215-1.117,14.358-4.046,20.657l-0.028,0.061h-0.067c-26.482,0-38.387,0.089-43.471,0.127L74.323,97.606
	L74.323,97.606z M120.903,97.007c1.001-2.288,1.87-4.892,2.445-7.331l0.021-0.09l0.092,0.009c4.262,0.441,7.861,3.355,9.169,7.423
	l0.045,0.139h-11.837L120.903,97.007z"/>
</svg>
