<?xml version="1.0" encoding="utf-8"?>
<!-- Generator: Adobe Illustrator 17.0.0, SVG Export Plug-In . SVG Version: 6.00 Build 0)  -->
<!DOCTYPE svg PUBLIC "-//W3C//DTD SVG 1.1//EN" "http://www.w3.org/Graphics/SVG/1.1/DTD/svg11.dtd">
<svg version="1.1" id="Layer_1" xmlns="http://www.w3.org/2000/svg" xmlns:xlink="http://www.w3.org/1999/xlink" x="0px" y="0px"
	 width="180px" height="150px" viewBox="0 0 180 150" enable-background="new 0 0 180 150" xml:space="preserve">
<g>
	<path fill="#39435B" d="M67.374,96.2c0.014,0.039,0.028,0.078,0.043,0.116l0-0.218h-0.042V96.2z"/>
	<polygon fill="#39435B" points="67.337,96.098 67.338,96.102 67.338,96.098 	"/>
	<path fill="#39435B" d="M122.302,110.185c5.501,0,9.977-4.476,9.977-9.978v-1.153h2.165c0.364,0,0.625-0.127,0.799-0.387
		c0.245-0.257,0.325-0.523,0.239-0.781l-0.003-0.012c-0.996-5.949-5.614-10.416-11.492-11.116l-0.457-0.055l0.085-0.452
		c2.364-12.655-0.434-26.597-7.302-36.388l-0.336-0.479l0.558-0.178c3.625-1.16,6.06-4.422,6.06-8.118
		c0-0.636-0.379-1.015-1.015-1.015H59.135c-6.537,0-11.856,5.319-11.856,11.856v39.051l-0.114,0.124
		c-1.772,1.919-2.966,4.355-3.361,6.858l0.002,0.008c0.004,0.178,0.01,0.476,0.167,0.632c0.218,0.219,0.557,0.452,0.852,0.452h2.343
		l-0.035,0.462c-0.202,2.76,0.788,5.532,2.716,7.605c1.922,2.068,4.501,3.207,7.262,3.207c2.79,0,5.378-1.13,7.289-3.182
		c1.909-2.05,2.889-4.832,2.69-7.632l-0.033-0.461h45.269v1.153C112.325,105.709,116.801,110.185,122.302,110.185z M130.105,99.918
		c0,4.537-3.491,8.091-7.947,8.091c-2.247,0-4.404-0.96-5.92-2.634c-1.507-1.665-2.245-3.881-2.025-6.079l0.039-0.388h0.53
		c0.459,0,0.473,0,0.719-0.004c0.576-0.01,2.329-0.041,14.17-0.14l0.434-0.004V99.918z M123.127,88.61l0.377,0.038
		c4.403,0.456,8.121,3.466,9.472,7.669l0.181,0.562h-12.813l0.263-0.603c0.997-2.279,1.862-4.871,2.434-7.298L123.127,88.61z
		 M122.297,72.845L122.297,72.845l0.048,0.473h-10.88V49.329h2.238l0.129,0.175C118.34,55.612,121.425,64.119,122.297,72.845z
		 M49.309,51.784c0-5.418,4.408-9.826,9.826-9.826h61.246l-0.116,0.524c-0.62,2.792-3.228,4.819-6.202,4.819H73.012
		c-2.352,0-4.34,1.987-4.34,4.34v21.679H49.309V51.784z M90.276,75.197l0.001-0.351h-0.35v-3.112h10.257v3.463H90.276z
		 M97.293,77.227v13.726h-7.366V77.227H97.293z M99.322,77.227h0.575c1.277,0,2.316-1.039,2.316-2.316V72.02
		c0-1.277-1.039-2.316-2.316-2.316H89.782V49.329h19.508v41.479h-9.968V77.227z M87.753,49.329v41.479h-9.46l-0.012-0.065
		l-2.656-13.872c-0.523-1.957-2.382-3.421-4.519-3.555l-0.403-0.025V51.639c0-1.252,1.058-2.31,2.31-2.31H87.753z M62.993,105.545
		c-1.527,1.683-3.616,2.609-5.881,2.609c-2.266,0-4.354-0.927-5.881-2.609c-1.533-1.688-2.285-3.965-2.064-6.247l0.037-0.389h15.815
		l0.037,0.389C65.278,101.58,64.525,103.856,62.993,105.545z M45.95,97.024l0.204-0.575c1.656-4.667,6.059-7.803,10.957-7.803
		c4.962,0,9.309,3.14,10.817,7.815l0.181,0.563H45.95z M74.181,97.007L74.181,97.007c-1.428,0.01-2.339,0.017-2.904,0.017h-1.2
		l-0.084-0.322c-1.555-5.938-6.911-10.086-13.026-10.086c-2.647,0-5.047,0.705-7.133,2.096l-0.67,0.447V75.492h0.676v-0.144h0.268
		v0.144h20.735c1.287,0,2.426,0.925,2.595,2.105l2.887,14.722c0.1,0.499,0.491,0.809,1.023,0.809h32.812
		c0.636,0,1.015-0.379,1.015-1.015V75.348h11.107l0.018,0.413c0.285,7.289-1.128,14.505-4.088,20.869l-0.115,0.249h-0.275
		C91.192,96.879,79.271,96.968,74.181,97.007z"/>
</g>
</svg>
