<?xml version="1.0" encoding="utf-8"?>
<!-- Generator: Adobe Illustrator 17.0.0, SVG Export Plug-In . SVG Version: 6.00 Build 0)  -->
<!DOCTYPE svg PUBLIC "-//W3C//DTD SVG 1.1//EN" "http://www.w3.org/Graphics/SVG/1.1/DTD/svg11.dtd">
<svg version="1.1" id="Layer_1" xmlns="http://www.w3.org/2000/svg" xmlns:xlink="http://www.w3.org/1999/xlink" x="0px" y="0px"
	 width="180px" height="150px" viewBox="0 0 180 150" enable-background="new 0 0 180 150" xml:space="preserve">
<g>
	<path fill="#39435B" d="M68.433,100.888c0,1.803-1.462,3.265-3.265,3.265c-1.803,0-3.265-1.462-3.265-3.265
		c0-1.804,1.462-3.265,3.265-3.265C66.971,97.623,68.433,99.084,68.433,100.888z"/>
	<path fill="#39435B" d="M130.47,94.358c-0.426,0.009-0.85,0.052-1.268,0.128l-1.274-3.393H137c0.542,0,1.048-0.269,1.352-0.717
		c0.304-0.448,0.366-1.018,0.165-1.521l-1.447-3.616c-1.122-2.82-3.616-4.863-6.6-5.411v-0.163c-0.008-2.42-1.358-4.636-3.505-5.754
		l-7.645-13.759l4.293-6.431c0.669-1.003,0.73-2.293,0.16-3.354c-0.57-1.062-1.678-1.723-2.883-1.721h-10.305l-1.371-6.857
		c-0.155-0.761-0.824-1.306-1.6-1.306h-6.53c-0.776-0.001-1.444,0.545-1.6,1.306l-1.371,6.857H47.21c-3.606,0-6.53,2.923-6.53,6.53
		v47.344c0,0.902,0.731,1.633,1.632,1.633h6.53c0.776,0,1.444-0.546,1.6-1.306l0.717-3.591h4.36
		c-0.674,3.849,1.004,7.73,4.269,9.876c3.266,2.146,7.494,2.146,10.76,0c3.265-2.146,4.942-6.027,4.269-9.876h2.538l2.776,4.171
		c0.304,0.456,0.815,0.729,1.363,0.727h35.916c0.601,0,1.153-0.33,1.438-0.859l5.993-11.132l1.306,3.466
		c-3.416,2.174-4.713,6.531-3.039,10.218c1.675,3.688,5.807,5.58,9.693,4.438c3.885-1.141,6.338-4.969,5.751-8.976
		C137.966,97.302,134.519,94.338,130.47,94.358z M129.654,102.491c0.065,0.013,0.132,0.024,0.198,0.029
		c0.196-0.001,0.391-0.036,0.575-0.103c0.243-0.098,0.458-0.254,0.627-0.456c0.147,0.15,0.23,0.349,0.233,0.559
		c0,0.45-0.365,0.816-0.816,0.816s-0.816-0.366-0.816-0.816C129.653,102.51,129.653,102.501,129.654,102.491z M129.768,83.012
		c1.928,0.318,3.549,1.623,4.271,3.438l0.55,1.378h-7.384c-0.011,0-0.021,0-0.033,0L129.768,83.012z M102.421,43.749h3.856
		l0.979,4.898h-5.813L102.421,43.749z M43.945,68.237h4.898c0.902,0,1.632,0.731,1.632,1.633v1.632h-6.53V68.237z M43.945,74.768
		h6.53v8.163h-6.53V74.768z M47.505,100.888h-3.559v-1.632h3.885L47.505,100.888z M65.168,107.418c-3.606,0-6.53-2.924-6.53-6.53
		c0-3.607,2.924-6.53,6.53-6.53c3.606,0,6.53,2.923,6.53,6.53C71.698,104.494,68.774,107.418,65.168,107.418z M86.391,100.888
		h-4.024l-2.776-4.171c-0.304-0.455-0.815-0.729-1.363-0.726h-4.591c-1.744-3.03-4.973-4.898-8.47-4.898
		c-3.496,0-6.725,1.868-8.469,4.898H43.945v-9.795h42.446V100.888z M60.729,82.93l0.816-3.265h3.623v3.265H60.729z M68.433,82.93
		v-3.265h3.265v3.265H68.433z M74.964,82.93v-3.265h3.623l0.816,3.265H74.964z M86.391,82.93h-3.624l-1.322-5.293
		C81.263,76.91,80.61,76.4,79.861,76.4h-19.59c-0.749,0-1.402,0.51-1.584,1.237l-1.322,5.293h-3.625V69.87
		c0-2.706-2.193-4.898-4.898-4.898h-4.898v-3.265h42.446V82.93z M43.945,58.442v-3.265c0-1.804,1.462-3.265,3.265-3.265h73.68
		l-4.354,6.53H43.945z M89.656,71.503h1.633c0.901,0,1.632,0.731,1.632,1.633v11.428h-3.265V71.503z M112.512,100.888H89.656v-6.53
		h22.856V100.888z M112.512,91.093H89.656v-3.265h13.06c0.34,0,0.672-0.107,0.949-0.305l8.847-6.318V91.093z M112.512,77.193
		l-10.317,7.369h-6.008V73.135c0-2.705-2.193-4.898-4.898-4.898h-1.633v-6.53h19.917l1.895,8.531l-4.757,3.171
		c-0.75,0.5-0.953,1.514-0.452,2.264c0.501,0.75,1.515,0.953,2.265,0.453l3.704-2.47l0.287,1.293L112.512,77.193z M112.915,61.707
		h3.535l6.347,11.428h-7.346L112.915,61.707z M116.43,100.888h-0.653V76.4h8.163c1.803,0,3.265,1.461,3.265,3.265v1.221
		L116.43,100.888z M130.47,107.418c-2.057,0.008-3.898-1.275-4.602-3.208c-0.704-1.932-0.12-4.099,1.461-5.416l0.979,2.604
		c-0.468,0.9-0.332,1.997,0.342,2.756c0.674,0.759,1.746,1.023,2.696,0.665c0.95-0.359,1.58-1.266,1.584-2.281
		c0.004-1.015-0.618-1.927-1.566-2.293l-0.979-2.612c0.03,0,0.058-0.008,0.089-0.008c2.705,0,4.898,2.192,4.898,4.898
		c0,2.705-2.193,4.898-4.898,4.898L130.47,107.418z"/>
</g>
</svg>
