<?xml version="1.0" encoding="utf-8"?>
<!-- Generator: Adobe Illustrator 17.0.0, SVG Export Plug-In . SVG Version: 6.00 Build 0)  -->
<!DOCTYPE svg PUBLIC "-//W3C//DTD SVG 1.1//EN" "http://www.w3.org/Graphics/SVG/1.1/DTD/svg11.dtd">
<svg version="1.1" id="Layer_1" xmlns="http://www.w3.org/2000/svg" xmlns:xlink="http://www.w3.org/1999/xlink" x="0px" y="0px"
	 width="130px" height="75px" viewBox="0 0 130 75" enable-background="new 0 0 130 75" xml:space="preserve">
<g id="Layer_1_1_">
	<g>
		<path fill="#E72F25" d="M83.717,20.411h-4.905v0.054c0.162,0.269,0.27,0.647,0.27,0.997c0,0.593-0.377,1.644-0.485,2.102
			L75.47,32.54c-0.431,1.159-0.485,1.482-1.213,2.587v0.054h4.07v-0.054c-0.216-0.377-0.323-0.674-0.323-1.051
			c0-0.593,0.27-1.375,0.431-1.806l0.216-0.647h4.42c0,0,0.27,0.782,0.485,1.267c0.162,0.431,0.216,0.835,0.216,1.105
			c0,0.324-0.054,0.593-0.216,1.105v0.054h5.929V35.1c-0.647-0.782-0.943-1.698-1.482-3.18L83.717,20.411z M79.432,29.251
			l1.375-4.124l0,0l1.428,4.124H79.432z M71.724,31.947c0,1.321,0.108,2.534,0.539,3.234v0.054h-5.822v-0.054
			c0.593-0.997,0.485-2.021,0.485-3.18v-2.426v-0.593l-0.782-1.536l-2.803-5.229c-0.377-0.728-0.674-1.213-1.267-1.752v-0.054h5.067
			v0.054l3.019,6.118c0,0,0.674-1.375,0.836-1.698c0.323-0.647,0.674-1.375,0.835-1.698c0.27-0.485,0.539-1.159,0.539-1.698
			c0-0.539-0.162-0.782-0.323-0.997v-0.108h4.016v0.054l-4.07,8.032l-0.323,0.593L71.724,31.947L71.724,31.947z M100.94,35.208
			H90.536v-0.054c0.431-0.943,0.485-1.752,0.485-3.18v-8.355c0-1.752-0.162-2.426-0.485-3.126v-0.054h5.66v0.054
			c-0.377,0.997-0.431,1.59-0.431,3.18v8.517c0.647,0.108,1.375,0.216,2.156,0.216c1.698,0,2.587-0.162,3.234-0.431h0.162
			L100.94,35.208z M55.175,20.061c-4.609,0-7.762,2.857-7.762,6.873c0,5.876,6.226,6.711,8.409,4.798l-0.377-0.728
			c-1.914,0.377-3.585-1.051-3.585-4.285c0-2.587,1.375-4.232,3.288-4.232c2.21,0,3.585,2.21,3.585,5.444
			c0,3.639-2.102,6.388-6.037,6.388c-4.501,0-7.87-3.531-9.999-7.088c2.318-0.889,3.692-2.641,3.692-5.013
			c0-3.072-2.318-5.229-6.495-5.229H31.97v0.054c0.323,0.674,0.485,1.967,0.485,3.692v11.266c0,1.428-0.054,2.21-0.485,3.18v0.054
			h5.875v-0.054c-0.377-0.889-0.485-2.102-0.485-3.18c0-1.752,0-3.126,0-3.126c0.054,0,0.647,0,0.728,0
			c4.07,5.983,8.732,8.463,13.692,8.463c7.196,0,11.428-4.555,11.428-9.568C63.207,23.484,59.973,20.061,55.175,20.061z
			 M37.414,26.502v-6.711h1.644c1.914,0,2.695,1.105,2.695,2.911c0,2.156-1.267,3.854-3.342,3.854
			C38.088,26.502,37.522,26.502,37.414,26.502z M49.876,41.565c-0.323,0.674-0.485,1.429-0.485,3.126v9.191
			c0.054,0.943,0.108,1.59,0.485,2.318v0.054h-0.485h-0.943h-2.021c-0.728-0.323-1.536-1.213-2.587-2.318
			c-0.836-0.889-4.797-5.498-4.797-5.498h-0.054c0,0,0,4.339,0,4.393c-1.159,0.108-2.533,0.431-3.585,0.674v-0.943v-7.924
			c0-1.752-0.162-2.426-0.485-3.126v-0.054h2.965h1.213l6.711,8.139l0,0v-4.851c0-1.752-0.162-2.426-0.485-3.126v-0.054h3.126
			H49.876L49.876,41.565z M42.95,56.308c-5.875,0.054-7.25,3.234-14.689,3.234c-3.585,0-6.765-0.943-6.765-0.943v-0.054
			c0.431-0.943,0.485-1.698,0.485-3.126V41.834c0-1.752-0.162-3.019-0.485-3.692v-0.054h11.994l0.377,3.342l0,0
			c-0.889-0.377-2.021-0.485-3.585-0.485h-3.18v5.768h1.536c2.372,0,3.746-0.162,4.124-0.27h0.108v3.477h-0.054
			c-0.485-0.162-2.102-0.323-4.07-0.323h-1.59v5.768c0,0,1.86,0.431,3.531,0.431c4.447,0,6.334-1.59,10.727-1.59
			c0.162,0,0.27,0,0.377,0c0.835,0.997,1.59,1.806,1.914,2.102C43.381,56.308,43.381,56.308,42.95,56.308z M68.473,44.745v8.409
			c0,1.429,0.054,2.21,0.485,3.18v0.054h-5.714v-0.054c0.431-0.943,0.485-1.752,0.485-3.18v-8.409c0-1.752-0.162-2.426-0.485-3.126
			v-0.054h5.714v0.054C68.635,42.32,68.473,42.993,68.473,44.745z M57.018,47.98L57.018,47.98h0.431
			c2.102,0,2.803-0.162,3.126-0.216h0.108v3.072h-0.108c-0.431-0.162-1.321-0.323-3.072-0.323h-0.485v1.806v0.728
			c0,1.482,0.054,2.48,0.539,3.234v0.054H51.79v-0.054c0.431-0.943,0.485-1.752,0.485-3.18v-8.355c0-1.752-0.162-2.426-0.485-3.126
			v-0.054h9.837l0.377,3.019h-0.081c-0.674-0.323-1.59-0.485-3.019-0.485h-1.914v2.426v1.455H57.018z M81.41,53.262l-0.377,3.073
			h-6.819l0,0h-3.342v-0.054c0.431-0.943,0.485-1.752,0.485-3.18v-8.355c0-1.752-0.162-2.426-0.485-3.126v-0.054h9.838l0.377,3.019
			H81.06c-0.674-0.323-1.59-0.485-3.019-0.485h-1.914v3.369l0,0l0,0h0.377c2.102,0,2.803-0.162,3.126-0.216h0.108v3.073h-0.108
			c-0.431-0.162-1.321-0.323-3.073-0.323h-0.485v3.477c0.674,0.108,1.159,0.162,1.967,0.162c1.806,0,2.426-0.108,3.18-0.431h0.189
			V53.262z M107.58,49.408c0,5.067-3.692,9.029-9.945,9.029c-4.797,0-6.334-2.102-12.317-2.102l0,0h-2.48v-0.054
			c0.431-0.943,0.485-1.752,0.485-3.18v-8.409c0-1.752-0.162-2.426-0.485-3.126v-0.054h5.714v0.054
			c-0.323,0.674-0.485,1.806-0.485,3.18v8.975c3.531,0,5.121,1.051,8.247,1.051c4.339,0,6.441-2.372,6.441-5.768
			c0-2.911-1.482-5.067-4.07-5.067c-0.485,0-1.159,0-1.698,0v9.137c-1.59,0.054-3.423-0.162-4.744-0.647v-7.762
			c0-1.752-0.162-2.426-0.485-3.127v-0.054h6.711C104.05,41.511,107.58,44.961,107.58,49.408z"/>
	</g>
</g>
</svg>
