<?xml version="1.0" encoding="utf-8"?>
<!-- Generator: Adobe Illustrator 17.0.0, SVG Export Plug-In . SVG Version: 6.00 Build 0)  -->
<!DOCTYPE svg PUBLIC "-//W3C//DTD SVG 1.1//EN" "http://www.w3.org/Graphics/SVG/1.1/DTD/svg11.dtd">
<svg version="1.1" id="Layer_1" xmlns="http://www.w3.org/2000/svg" xmlns:xlink="http://www.w3.org/1999/xlink" x="0px" y="0px"
	 width="180px" height="150px" viewBox="0 0 180 150" enable-background="new 0 0 180 150" xml:space="preserve">
<path fill="#f1f1f1" d="M40.509,104.774c0.588,0.745,1.462,1.17,2.409,1.17c0.018,0,0.035-0.001,0.053-0.001
	c0.947-0.016,1.849-0.479,2.413-1.241l4.895-6.612h2.336c-1.152,1.859-1.784,4.021-1.784,6.242c0,6.53,5.313,11.843,11.843,11.843
	c6.254,0,11.389-4.875,11.812-11.023l5.08-1.972c1.94,2.075,4.694,3.372,7.709,3.372h15.646c6.951,0,12.917-4.727,14.506-11.494
	l1.134-4.826h0.175l2.191,4.341c-3.104,2.137-5.144,5.714-5.144,9.76c0,6.53,5.313,11.843,11.843,11.843
	c6.53,0,11.843-5.313,11.843-11.843c0-6.531-5.313-11.843-11.843-11.843c-1.447,0-2.833,0.261-4.116,0.739l-1.512-2.996h14.951
	c1.23,0,2.233-1.002,2.233-2.233V87.48c0-4.929-3.536-9.052-8.408-9.803l-9.592-1.478c-0.157-1.375-0.567-2.72-1.226-3.964
	l-1.78-3.359c-0.377-0.711-1.258-0.982-1.968-0.605c-0.711,0.376-0.982,1.258-0.605,1.968l1.78,3.359
	c0.936,1.765,1.199,3.807,0.743,5.751l-3.533,15.041c-1.279,5.444-6.078,9.247-11.67,9.247H87.275c-3.449,0-6.43-2.341-7.349-5.548
	h3.813c0.804,0,1.456-0.652,1.456-1.457c0-0.804-0.652-1.456-1.456-1.456H44.728l0.245-1.164
	c2.345-11.145,12.313-19.235,23.701-19.235h1.343c0.805,0,1.456-0.652,1.456-1.456c0-0.804-0.651-1.456-1.456-1.456h-1.343
	c-2.027,0-4.039,0.231-6,0.677v-0.176c0-1.178-0.958-2.136-2.136-2.136c-0.429,0-0.828-0.172-1.124-0.482
	c-0.297-0.31-0.448-0.718-0.428-1.149c0.039-0.814,0.773-1.476,1.637-1.476h29.362c1.354,0,2.456,1.101,2.456,2.456v3.745
	c-1.247-0.939-2.77-1.459-4.371-1.459H76.944c-0.805,0-1.457,0.652-1.457,1.456c0,0.804,0.652,1.456,1.457,1.456h11.128
	c1.322,0,2.559,0.589,3.392,1.616c0.834,1.028,1.156,2.358,0.883,3.653l-3.102,14.744c-0.112,0.531,0.082,1.054,0.461,1.39
	c0.26,0.397,0.708,0.661,1.219,0.661h11.997c2.422,0,4.5-1.647,5.054-4.005l2.7-11.494c0.618-2.631,0.261-5.394-1.004-7.781
	l-8.916-16.822h0.885c1.338,0,2.427-1.088,2.427-2.427v-3.166c0-1.076-0.704-1.99-1.676-2.307l4.762-3.07
	c0.794-0.512,1.738-0.672,2.656-0.45c0.919,0.222,1.685,0.795,2.157,1.613c0.91,1.576,0.427,3.586-1.1,4.577l-1.989,1.29
	c-1.051,0.666-1.423,2.066-0.833,3.18l4.494,8.48c0.573,0.758,1.229,0.96,1.969,0.604c0.711-0.376,0.982-1.258,0.605-1.969
	l-4.286-8.087l1.626-1.054c2.827-1.835,3.722-5.558,2.037-8.477c-0.875-1.516-2.294-2.576-3.995-2.988
	c-1.7-0.411-3.448-0.116-4.918,0.833l-6.814,4.393c-0.44,0.279-0.838,0.619-1.188,1.005h-1.067v-6.91
	c0-1.018-0.828-1.845-1.844-1.845h-0.527c-0.407-3.308-3.232-5.877-6.647-5.877c-3.694,0-6.699,3.005-6.699,6.699
	c0,3.694,3.005,6.7,6.699,6.7c2.713,0,5.054-1.623,6.105-3.948v5.181h-3.552c-2.211,0-4.01,1.798-4.01,4.01
	c0,2.211,1.799,4.01,4.01,4.01h7.417l9.638,18.186c0.936,1.765,1.199,3.807,0.743,5.752l-2.7,11.493
	c-0.243,1.035-1.155,1.758-2.219,1.758H92.403l2.794-13.283c0.112-0.532,0.163-1.067,0.157-1.598c0-0.01,0.002-0.02,0.002-0.03
	V69.58c0-2.96-2.409-5.369-5.369-5.369H60.624c-2.437,0-4.433,1.868-4.546,4.252c-0.058,1.234,0.378,2.405,1.229,3.297
	c0.658,0.689,1.525,1.148,2.455,1.314v0.303c-2.954,1.028-5.732,2.562-8.185,4.552c-4.819,3.911-8.177,9.41-9.455,15.483
	l-0.542,2.576c-0.056,0.102-1.63,6.118-1.63,6.118C39.708,103.044,39.912,104.016,40.509,104.774z M91.275,40.788
	c0,2.088-1.699,3.786-3.786,3.786s-3.786-1.699-3.786-3.786s1.699-3.786,3.786-3.786S91.275,38.701,91.275,40.788z M101.155,53.829
	H90.042c-0.605,0-1.098-0.492-1.098-1.097c0-0.605,0.493-1.097,1.098-1.097h11.113V53.829z M122.254,97.204l1.535,3.04
	c-1.091,1.025-1.774,2.478-1.774,4.089c0,3.094,2.517,5.61,5.611,5.61c3.093,0,5.61-2.516,5.61-5.61c0-3.094-2.517-5.611-5.61-5.611
	c-0.436,0-0.86,0.052-1.269,0.146l-1.523-3.016c0.879-0.29,1.817-0.449,2.792-0.449c4.924,0,8.93,4.007,8.93,8.931
	c0,4.924-4.006,8.93-8.93,8.93c-4.925,0-8.931-4.007-8.931-8.93C118.695,101.423,120.094,98.835,122.254,97.204z M125.23,103.098
	l0.947,1.876c0.256,0.508,0.769,0.8,1.301,0.8c0.22,0,0.445-0.05,0.655-0.157c0.718-0.363,1.006-1.239,0.644-1.956l-1.019-2.02
	c1.427,0.069,2.567,1.248,2.567,2.692c0,1.487-1.211,2.698-2.698,2.698c-1.488,0-2.699-1.211-2.699-2.698
	C124.927,103.887,125.037,103.468,125.23,103.098z M136.267,87.319h-17.022l1.715-7.301c0.068-0.292,0.123-0.585,0.167-0.879
	l9.202,1.418C133.718,81.079,136.191,83.909,136.267,87.319z M77.846,100.723l-5.134,1.993c-0.124,0.03-0.242,0.077-0.35,0.136
	l-8.914,3.46c-0.549,0.214-1.148,0.2-1.687-0.037c-0.539-0.238-0.953-0.67-1.167-1.22c-0.44-1.134,0.125-2.414,1.258-2.854
	L72.44,98.09h4.493C77.12,99.018,77.43,99.902,77.846,100.723z M56.289,98.09h8.103l-3.595,1.395
	c-2.63,1.021-3.939,3.993-2.918,6.624c0.786,2.024,2.726,3.266,4.777,3.266c0.615,0,1.24-0.112,1.847-0.347l6.867-2.666
	c-0.922,3.949-4.469,6.901-8.695,6.901c-4.925,0-8.931-4.007-8.931-8.93C53.744,102,54.667,99.753,56.289,98.09z M42.77,102.838
	l1.229-4.748h2.657l-3.612,4.879c-0.029,0.039-0.074,0.062-0.122,0.062c-0.018-0.001-0.077,0.001-0.125-0.059
	C42.751,102.912,42.765,102.857,42.77,102.838z"/>
</svg>
