<?xml version="1.0" encoding="utf-8"?>
<!-- Generator: Adobe Illustrator 17.0.0, SVG Export Plug-In . SVG Version: 6.00 Build 0)  -->
<!DOCTYPE svg PUBLIC "-//W3C//DTD SVG 1.1//EN" "http://www.w3.org/Graphics/SVG/1.1/DTD/svg11.dtd">
<svg version="1.1" id="Layer_1" xmlns="http://www.w3.org/2000/svg" xmlns:xlink="http://www.w3.org/1999/xlink" x="0px" y="0px"
	 width="180px" height="150px" viewBox="0 0 180 150" enable-background="new 0 0 180 150" xml:space="preserve">
<path fill="#39435B" d="M139.671,91.672c-1.77-4.09-4.985-7.176-9.297-8.925c-3.489-1.416-7.473-1.842-11.34-1.235l-1.545-3.302
	V73.6c0.829,0.305,1.711,0.466,2.61,0.466h5.249c1.858,0,3.37-1.511,3.37-3.368v-8.464c0-1.857-1.512-3.368-3.37-3.368H120.1
	c-0.899,0-1.781,0.161-2.61,0.466v-5.129c0-0.822-0.183-1.576-0.544-2.242c-0.619-1.359-1.836-2.328-3.26-2.65l-2.283-5.198
	c0.768-0.595,1.266-1.522,1.266-2.566v-2.551c0-1.602-1.201-2.898-2.983-3.225l-7.488-1.394c-0.001,0-0.003,0-0.004-0.001
	c-0.821-0.151-1.642,0.074-2.31,0.631c-0.758,0.632-1.211,1.604-1.211,2.6v3.94c0,1.792,1.459,3.25,3.252,3.25h6.51l1.928,4.39
	l-7.554-0.026c-0.008,0-0.016,0-0.025,0c-2.8,0-4.329,2.063-4.393,4.106c-0.067,2.121,1.38,4.357,4.274,4.527l5.994,0.35v4.808
	c-1.189-0.843-2.71-1.533-4.527-2.03c-7.375-2.02-17.711-0.608-21.576,4.526h-11.7c-0.826,0-1.497,0.67-1.497,1.496
	c0,0.826,0.67,1.496,1.497,1.496h10.992v7.781H64.672h-7.099H45.686c-1.987,0-3.173-0.968-3.173-2.589v-6.266
	c0-0.763,0.189-1.328,0.563-1.68c0.438-0.412,1.204-0.616,2.103-0.563c0.032,0.002,0.065,0.004,0.096,0.003l2.687-0.011
	c0.578,0.003,1.094,0.469,1.889,1.229c0.935,0.894,2.099,2.007,3.853,2.097c0.025,0.001,0.051,0.002,0.076,0.002h10.554
	c0.826,0,1.496-0.67,1.496-1.496c0-0.826-0.67-1.496-1.496-1.496H53.827c-0.587-0.045-1.115-0.512-1.907-1.269
	c-0.955-0.913-2.144-2.05-3.956-2.058l-2.655,0.011c-1.723-0.093-3.243,0.395-4.284,1.375c-0.686,0.646-1.505,1.84-1.505,3.859
	v6.266c0,3.286,2.535,5.582,6.166,5.582h10.041L55.3,81.232c-6.811,0.12-14.171,3.419-15.92,9.892
	c-0.651,2.417-0.526,4.138,0.384,5.261c0.23,0.285,0.566,0.591,1.038,0.819c-0.2,1.006-0.303,2.034-0.303,3.071
	c0,8.625,7.023,15.641,15.656,15.641c7.359,0,13.708-5.179,15.28-12.244l6.768-0.007c0.826-0.001,1.496-0.671,1.495-1.498
	c-0.001-0.826-0.671-1.495-1.496-1.495c0,0-0.001,0-0.002,0l-17.333,0.018c0.169-0.387,0.305-0.809,0.393-1.275l0.42-1.842h22.451
	c0.002,0,0.004,0,0.006,0c0.002,0,0.004,0,0.006,0h3.013c2.298,0,3.396-0.546,4.697-2.335l8.257-11.329
	c0.008-0.011,0.016-0.021,0.024-0.033l3.399-4.664h4.838L93.866,98.169c-0.018,0.023-0.035,0.048-0.052,0.072
	c-1.642,2.432-3.28,2.432-3.896,2.432h-5.839c-0.826,0-1.496,0.67-1.496,1.496c0,0.826,0.67,1.496,1.496,1.496h5.839
	c2.538,0,4.674-1.249,6.351-3.712l13.53-17.681l1.134,2.362c-2.664,1.825-4.6,4.265-5.635,7.123c-0.81,2.24-0.788,3.993,0.066,5.211
	c0.293,0.418,0.771,0.882,1.529,1.188c-0.094,0.696-0.143,1.404-0.143,2.119c0,8.625,7.023,15.642,15.656,15.642
	c8.633,0,15.656-7.017,15.656-15.642c0-0.683-0.047-1.367-0.137-2.048c0.932-0.321,1.49-0.879,1.815-1.375
	C140.925,95.047,140.086,92.627,139.671,91.672L139.671,91.672z M117.49,62.676c0.766-0.53,1.674-0.817,2.61-0.817h5.249
	c0.204,0,0.377,0.172,0.377,0.375v8.464c0,0.203-0.173,0.375-0.377,0.375H120.1c-0.937,0-1.844-0.287-2.61-0.817V62.676z
	 M109.676,41.548c0,0.139-0.121,0.257-0.264,0.257h-0.007c-0.007,0-0.014,0-0.021,0h-7.459c-0.14,0-0.259-0.118-0.259-0.257v-3.94
	c0-0.101,0.054-0.208,0.101-0.266l7.376,1.373c0.301,0.055,0.534,0.197,0.534,0.282V41.548z M42.629,94.553
	c-0.024,0-0.049,0.001-0.073,0.002c-0.354,0.019-0.464-0.051-0.464-0.051c-0.087-0.086-0.312-0.78,0.178-2.599
	c1.147-4.246,6.318-7.361,12.395-7.66l-2.177,10.308h-9.844C42.639,94.553,42.634,94.553,42.629,94.553L42.629,94.553z
	 M55.556,103.584c0.133,0.024,0.267,0.041,0.403,0.053c0.122,0.032,0.25,0.051,0.382,0.051h0.002l4.242-0.004
	c-1.038,1.341-2.66,2.182-4.429,2.182c-3.086,0-5.597-2.508-5.597-5.59c0-0.968,0.249-1.898,0.718-2.73h0.58l-0.022,0.105
	c-0.004,0.018-0.007,0.037-0.011,0.055C51.25,101.025,53.267,103.175,55.556,103.584L55.556,103.584z M64.037,103.68l4.314-0.004
	c-1.503,5.377-6.473,9.248-12.197,9.248c-6.982,0-12.663-5.674-12.663-12.649c0-0.924,0.101-1.838,0.296-2.73h4.22
	c-0.293,0.871-0.444,1.789-0.444,2.73c0,4.733,3.853,8.583,8.59,8.583C59.603,108.858,62.696,106.778,64.037,103.68L64.037,103.68z
	 M61.718,83.942l-2.687,11.787c-0.002,0.008-0.004,0.017-0.006,0.026l-0.69,3.024c-0.004,0.02-0.009,0.041-0.013,0.062
	c-0.309,1.678-1.555,1.918-2.241,1.796c-0.392-0.07-1.639-0.449-1.314-2.398l0.391-1.851c0.005-0.023,0.01-0.045,0.014-0.068
	l3.613-17.108h4.01l-1.062,4.659C61.728,83.896,61.722,83.919,61.718,83.942L61.718,83.942z M68.934,94.553
	c-0.007,0-0.014,0-0.021,0h-6.545l1.851-8.121c2.274,1.36,3.974,3.291,4.967,5.66c0.003,0.007,0.006,0.015,0.009,0.022
	c0.314,0.717,0.584,1.787,0.647,2.451L68.934,94.553z M64.912,83.395l0.953-4.182h14.052l-8.996,9.715
	C69.502,86.603,67.462,84.724,64.912,83.395L64.912,83.395z M72.291,91.854l11.705-12.641h15.834l-1.702,2.335h-9.116
	c-0.826,0-1.496,0.67-1.496,1.496c0,0.826,0.67,1.496,1.496,1.496h6.935l-3.849,5.28c-1.066-1.11-2.559-1.776-4.183-1.776
	c-1.588,0-3.072,0.622-4.177,1.75c-0.99,1.004-1.583,2.33-1.671,3.732c-0.022,0.354-0.009,0.706,0.031,1.054h-9.262
	C72.804,93.594,72.529,92.57,72.291,91.854L72.291,91.854z M87.157,94.581h-2.025c-0.068-0.28-0.095-0.572-0.077-0.866
	c0.043-0.683,0.332-1.329,0.818-1.822c0.54-0.551,1.265-0.855,2.042-0.855c0.995,0,1.864,0.486,2.363,1.28l-0.845,1.16
	C88.723,94.456,88.55,94.581,87.157,94.581z M108.658,76.22H84.839v-8.839c2.862-4.112,12.14-5.316,18.501-3.573
	c1.599,0.438,5.318,1.737,5.318,4.338L108.658,76.22L108.658,76.22z M110.241,55.239l-7.403-0.433
	c-1.107-0.065-1.477-0.819-1.457-1.445c0.011-0.364,0.171-1.207,1.404-1.207h0.012l9.855,0.034c0.687,0.003,1.308,0.411,1.583,1.041
	c0.021,0.048,0.044,0.094,0.069,0.139c0.129,0.227,0.194,0.508,0.194,0.836v7.755v9.014v7.57c0,0.219,0.048,0.436,0.141,0.634
	l2.144,4.581c0.019,0.045,0.039,0.089,0.062,0.132l6.88,14.703c0.397,0.847,0.25,1.42-0.449,1.752
	c-0.486,0.23-1.337,0.293-1.623-0.302L111.65,79.214v-1.497v-9.57V56.732C111.65,55.94,111.032,55.285,110.241,55.239
	L110.241,55.239z M126.832,98.495h0.876c0.191,0.569,0.29,1.164,0.29,1.78c0,3.082-2.508,5.59-5.592,5.59
	c-3.086,0-5.597-2.508-5.597-5.59c0-0.612,0.1-1.208,0.294-1.78h0.485l1.366,2.844c0.72,1.498,2.141,2.166,3.577,2.166
	c0.699,0,1.4-0.158,2.027-0.455C126.087,102.324,127.294,100.653,126.832,98.495z M107.814,95.249
	c-0.146-0.208-0.248-0.964,0.298-2.473c0.769-2.124,2.186-3.968,4.135-5.403l3.903,8.129h-7.33
	C108.309,95.502,107.924,95.405,107.814,95.249L107.814,95.249z M122.406,112.924c-6.982,0-12.663-5.674-12.663-12.649
	c0-0.602,0.042-1.197,0.124-1.78h4.137c-0.123,0.581-0.189,1.175-0.189,1.78c0,4.733,3.854,8.583,8.59,8.583
	c4.734,0,8.585-3.85,8.585-8.583c0-0.607-0.065-1.201-0.187-1.78h4.134c0.084,0.592,0.131,1.187,0.131,1.78
	C135.069,107.25,129.389,112.924,122.406,112.924L122.406,112.924z M137.238,95.211c-0.12,0.182-0.514,0.291-1.055,0.291H125.58
	l-5.217-11.151c6.236-0.683,13.563,1.583,16.563,8.512C137.405,93.966,137.444,94.896,137.238,95.211L137.238,95.211z"/>
</svg>
