<?xml version="1.0" encoding="utf-8"?>
<!-- Generator: Adobe Illustrator 17.0.0, SVG Export Plug-In . SVG Version: 6.00 Build 0)  -->
<!DOCTYPE svg PUBLIC "-//W3C//DTD SVG 1.1//EN" "http://www.w3.org/Graphics/SVG/1.1/DTD/svg11.dtd">
<svg version="1.1" id="Layer_1" xmlns="http://www.w3.org/2000/svg" xmlns:xlink="http://www.w3.org/1999/xlink" x="0px" y="0px"
	 width="130px" height="75px" viewBox="0 0 130 75" enable-background="new 0 0 130 75" xml:space="preserve">
<g>
	<g>
		<g>
			<g>
				<path fill="#ccebf5" d="M31.857,35.79c0.007-0.814-0.532-1.09-0.532-1.09c-0.64,0.153-0.611,0.552-0.611,0.552
					s-0.003,0.248-0.008,0.653l0.601,0.356l0.548-0.325C31.855,35.878,31.857,35.827,31.857,35.79z"/>
			</g>
			<g>
				<path fill="#ccebf5" d="M30.678,38.019c0.214,0.127,0.425,0.252,0.627,0.372c0.151-0.089,0.304-0.18,0.46-0.273
					c0.012-0.262,0.023-0.513,0.033-0.75c-0.157-0.087-0.32-0.177-0.487-0.269c-0.215,0.118-0.424,0.234-0.626,0.345
					C30.683,37.63,30.68,37.822,30.678,38.019z"/>
			</g>
			<g>
				<path fill="#ccebf5" d="M32.186,32.938c-0.066,0.287-0.602,0.448-0.605,0.72c-0.003,0.27,0.355,0.49,0.355,0.49
					c0.381,0.179,0.564,1.218,0.564,1.218l-0.003,0.19l2.407-1.427c0.382-0.239,0.717,0.047,0.717,0.047
					c0.239,0.43-0.286,0.717-0.286,0.717s-1.371,0.749-2.851,1.562l-0.007,0.501l0.626,0.371c1.378-0.814,2.623-1.541,2.805-1.621
					c0.43-0.191,0.574,0.143,0.574,0.143c0.143,0.478-0.334,0.573-0.334,0.573s-1.013,0.602-2.287,1.353l0.376,0.223
					c0,0,0.812,0.717,0.764,1.147c0,0,0,0.431,0.239,0.574s0.669-0.238,0.956-0.143c0.125,0.042,0.497,0.439,0.875,0.874
					c0.387-0.83,0.605-1.758,0.605-2.738c0-3.401-2.613-6.182-5.912-6.389C31.983,31.989,32.223,32.778,32.186,32.938z"/>
			</g>
			<g>
				<path fill="#ccebf5" d="M33.519,38.333c-0.064-0.039-0.17-0.1-0.307-0.177c-0.25,0.147-0.505,0.296-0.76,0.446l-0.007,0.467
					c0.562,0.335,0.93,0.554,0.93,0.554s0.334,0.238,0.812-0.239C34.188,39.384,34.236,38.763,33.519,38.333z"/>
			</g>
			<g>
				<path fill="#ccebf5" d="M35.717,41.344c0,0-0.191,0.047-0.382-0.143c-0.191-0.192-0.287-0.669-0.621-0.717
					s-0.764,0.143-1.051,0.095c-0.07-0.012-0.549-0.273-1.229-0.661l-0.044,3.016c0.004,0.438-0.404,0.57-0.404,0.57
					c-0.478-0.021-0.449-0.602-0.449-0.602s0.083-1.672,0.165-3.404c-0.128-0.074-0.259-0.15-0.394-0.228
					c-0.226,0.131-0.445,0.258-0.654,0.379c-0.026,1.621-0.057,3.116-0.083,3.314c-0.06,0.454-0.41,0.403-0.41,0.403
					c-0.47-0.124-0.307-0.569-0.307-0.569s0.016-1.215,0.042-2.715c-0.615,0.349-1.042,0.581-1.108,0.591
					c-0.287,0.048-0.717-0.143-1.051-0.095c-0.334,0.049-0.43,0.525-0.621,0.717c-0.191,0.192-0.382,0.143-0.382,0.143
					s-0.164,0.051-0.41,0.115c1.151,1.555,2.982,2.561,5.045,2.561c2.072,0,3.911-1.015,5.061-2.581
					C36.023,41.439,35.717,41.344,35.717,41.344z"/>
			</g>
			<g>
				<path fill="#ccebf5" d="M26.255,39.671c0.287-0.096,0.716,0.286,0.956,0.144c0.239-0.142,0.239-0.573,0.239-0.573
					c-0.048-0.43,0.764-1.147,0.764-1.147l0.538-0.319c-1.349-0.795-2.449-1.449-2.449-1.449s-0.478-0.095-0.334-0.574
					c0,0,0.143-0.334,0.573-0.143c0.189,0.084,1.525,0.866,2.966,1.717l0.448-0.265c0.006-0.243,0.012-0.477,0.018-0.698
					c-1.483-0.815-2.859-1.566-2.859-1.566s-0.525-0.287-0.286-0.717c0,0,0.334-0.287,0.716-0.048l2.457,1.456
					c0.02-0.546,0.042-0.908,0.063-0.96c0.106-0.263,0.484-0.522,0.614-0.824c0.13-0.302-0.218-0.625-0.279-0.881
					c-0.062-0.255,0.076-0.39,0.076-0.39s0.137-0.543,0.353-1.1c-3.23,0.278-5.768,3.026-5.768,6.378
					c0,0.921,0.193,1.795,0.538,2.587C25.893,39.97,26.154,39.705,26.255,39.671z"/>
			</g>
			<g>
				<path fill="#ccebf5" d="M28.931,38.428c-0.717,0.43-0.669,1.052-0.669,1.052c0.478,0.477,0.812,0.238,0.812,0.238
					s0.327-0.195,0.836-0.499c0.005-0.251,0.01-0.504,0.015-0.756c-0.175-0.102-0.349-0.205-0.522-0.306
					C29.184,38.281,29.019,38.375,28.931,38.428z"/>
			</g>
		</g>
		<g>
			<path fill="#ccebf5" d="M31.392,46.141c-4.608,0-8.358-3.803-8.358-8.478c0-4.674,3.749-8.476,8.358-8.476
				c4.608,0,8.357,3.802,8.357,8.476C39.749,42.338,36,46.141,31.392,46.141z M31.392,29.894c-4.218,0-7.65,3.485-7.65,7.768
				c0,4.285,3.432,7.77,7.65,7.77s7.65-3.486,7.65-7.77C39.041,33.379,35.61,29.894,31.392,29.894z"/>
		</g>
		<g>
			<g>
				<polygon fill="#ccebf5" points="43.212,29.663 46.614,29.663 48.419,36.158 50.171,29.612 53.677,29.612 50.12,40.334 
					50.12,45.85 46.563,45.85 46.511,40.54 				"/>
			</g>
			<g>
				<path fill="#ccebf5" d="M60.636,29.56h-4.33l-3.248,16.393h3.248l0.825-3.815h2.681l1.031,3.763h3.042L60.636,29.56z
					 M57.801,38.839l0.619-4.279l0.825,4.279H57.801z"/>
			</g>
			<g>
				<path fill="#ccebf5" d="M86.067,29.56h-4.33L78.49,45.953h3.248l0.825-3.815h2.68l1.031,3.763h3.041L86.067,29.56z
					 M83.232,38.839l0.619-4.279l0.825,4.279H83.232z"/>
			</g>
			<g>
				<path fill="#ccebf5" d="M109.369,29.56h-4.33l-3.248,16.393h3.248l0.825-3.815h2.681l1.031,3.763h3.042L109.369,29.56z
					 M106.534,38.839l0.618-4.279l0.825,4.279H106.534z"/>
			</g>
			<g>
				<polygon fill="#ccebf5" points="68.369,45.901 65.276,45.901 65.276,29.663 69.967,29.663 71.049,36.519 72.596,29.715 
					76.926,29.715 76.926,45.747 73.988,45.747 73.988,37.344 72.441,45.85 69.967,45.85 68.369,37.55 				"/>
			</g>
			<g>
				<polygon fill="#ccebf5" points="90.845,29.663 94.247,29.663 94.247,36.158 97.083,36.158 97.083,29.715 100.433,29.715 
					100.433,45.798 97.031,45.798 97.031,39.303 94.247,39.303 94.247,45.798 90.793,45.798 				"/>
			</g>
		</g>
	</g>
</g>
</svg>
